<svg width="512" height="512" version="1.1" xmlns="http://www.w3.org/2000/svg" desc="Created with imagetracer.js version 0.2.1" ><path fill="rgb(0,0,0)" stroke="rgb(0,0,0)" stroke-width="1" opacity="0" d="M 0 0 L 512 0 L 512 512 L 0 512 L 0 0 Z M 224 26 L 223 27 L 205 27 L 204 28 L 185 30 L 157 38 Q 118 52 91 78 Q 63 104 45 140 L 34 169 L 30 185 L 28 204 L 27 205 L 27 221 L 26 222 L 27 244 L 28 245 L 29 258 L 38 292 Q 53 332 80 360 Q 103 385 136 400 Q 144 401 148 398 Q 153 395 155 388 Q 156 380 153 376 L 148 370 Q 129 361 115 348 Q 94 330 80 306 L 66 274 L 62 259 L 60 240 L 59 239 L 59 210 L 60 209 L 62 190 L 66 175 Q 77 140 99 116 Q 117 95 141 81 Q 157 71 178 65 L 195 61 L 210 60 L 211 59 L 238 59 L 239 60 L 247 60 L 254 62 L 259 62 L 280 68 Q 311 79 334 100 Q 353 117 366 141 L 376 148 L 385 148 L 392 144 L 396 137 Q 398 126 393 122 Q 382 103 367 88 Q 340 59 302 42 L 268 31 L 252 28 L 225 27 L 224 26 Z M 385 158 Q 366 161 355 172 L 177 351 Q 170 360 167 374 L 159 436 L 158 437 Q 156 457 164 467 Q 172 478 187 482 L 205 482 L 206 481 L 267 473 Q 283 469 294 460 L 468 286 Q 479 275 482 257 L 482 237 L 480 229 Q 476 217 469 209 L 433 172 L 423 165 L 403 158 L 385 158 Z M 318 453 L 311 456 L 304 466 L 304 474 L 308 481 L 316 485 L 475 485 L 479 483 L 485 475 Q 487 465 483 461 Q 480 454 472 453 L 318 453 Z " /><path fill="rgb(0,0,0)" stroke="rgb(0,0,0)" stroke-width="1" opacity="0.7490196078431373" d="M 204.5 27 L 210 27.5 L 204.5 28 L 204.5 27 Z " /><path fill="rgb(0,0,0)" stroke="rgb(0,0,0)" stroke-width="1" opacity="0.7490196078431373" d="M 238.5 27 L 243 27.5 L 238.5 28 L 238.5 27 Z " /><path fill="rgb(0,0,0)" stroke="rgb(0,0,0)" stroke-width="1" opacity="0.7490196078431373" d="M 196.5 28 L 200 28.5 L 196.5 29 L 196.5 28 Z " /><path fill="rgb(0,0,0)" stroke="rgb(0,0,0)" stroke-width="1" opacity="0.7490196078431373" d="M 248.5 28 L 252 28.5 L 248.5 29 L 248.5 28 Z " /><path fill="rgb(0,0,0)" stroke="rgb(0,0,0)" stroke-width="1" opacity="0.7490196078431373" d="M 190.5 29 L 193 29.5 L 190.5 30 L 190.5 29 Z " /><path fill="rgb(0,0,0)" stroke="rgb(0,0,0)" stroke-width="1" opacity="0.7490196078431373" d="M 255.5 29 L 258 29.5 L 255.5 30 L 255.5 29 Z " /><path fill="rgb(0,0,0)" stroke="rgb(0,0,0)" stroke-width="1" opacity="0.7490196078431373" d="M 184.5 30 L 187 30.5 L 184.5 31 L 184.5 30 Z " /><path fill="rgb(0,0,0)" stroke="rgb(0,0,0)" stroke-width="1" opacity="0.7490196078431373" d="M 131.5 49 L 130.5 51 L 131.5 49 Z " /><path fill="rgb(0,0,0)" stroke="rgb(0,0,0)" stroke-width="1" opacity="0.7490196078431373" d="M 124.5 53 L 123.5 55 L 124.5 53 Z " /><path fill="rgb(0,0,0)" stroke="rgb(0,0,0)" stroke-width="1" opacity="0.7490196078431373" d="M 119.5 56 L 118.5 58 L 119.5 56 Z " /><path fill="rgb(0,0,0)" stroke="rgb(0,0,0)" stroke-width="1" opacity="0.7490196078431373" d="M 116.5 58 L 115.5 60 L 116.5 58 Z " /><path fill="rgb(0,0,0)" stroke="rgb(0,0,0)" stroke-width="1" opacity="0.7490196078431373" d="M 217.5 58 L 231 58.5 L 217.5 59 L 217.5 58 Z " /><path fill="rgb(0,0,0)" stroke="rgb(0,0,0)" stroke-width="1" opacity="0.7490196078431373" d="M 331.5 58 L 332.5 60 L 331.5 58 Z " /><path fill="rgb(0,0,0)" stroke="rgb(0,0,0)" stroke-width="1" opacity="0.7490196078431373" d="M 204.5 59 L 210 59.5 L 204.5 60 L 204.5 59 Z " /><path fill="rgb(0,0,0)" stroke="rgb(0,0,0)" stroke-width="1" opacity="0.7490196078431373" d="M 238.5 59 L 244 59.5 L 238.5 60 L 238.5 59 Z " /><path fill="rgb(0,0,0)" stroke="rgb(0,0,0)" stroke-width="1" opacity="0.7490196078431373" d="M 113.5 60 L 112.5 62 L 113.5 60 Z " /><path fill="rgb(0,0,0)" stroke="rgb(0,0,0)" stroke-width="1" opacity="0.7490196078431373" d="M 197.5 60 L 201 60.5 L 197.5 61 L 197.5 60 Z " /><path fill="rgb(0,0,0)" stroke="rgb(0,0,0)" stroke-width="1" opacity="0.7490196078431373" d="M 247.5 60 L 251 60.5 L 247.5 61 L 247.5 60 Z " /><path fill="rgb(0,0,0)" stroke="rgb(0,0,0)" stroke-width="1" opacity="0.7490196078431373" d="M 334.5 60 L 335.5 62 L 334.5 60 Z " /><path fill="rgb(0,0,0)" stroke="rgb(0,0,0)" stroke-width="1" opacity="0.7490196078431373" d="M 253.5 61 L 256 61.5 L 253.5 62 L 253.5 61 Z " /><path fill="rgb(0,0,0)" stroke="rgb(0,0,0)" stroke-width="1" opacity="0.7490196078431373" d="M 110.5 62 L 109.5 64 L 110.5 62 Z " /><path fill="rgb(0,0,0)" stroke="rgb(0,0,0)" stroke-width="1" opacity="0.7490196078431373" d="M 187.5 62 L 190 62.5 L 187.5 63 L 187.5 62 Z " /><path fill="rgb(0,0,0)" stroke="rgb(0,0,0)" stroke-width="1" opacity="0.7490196078431373" d="M 338.5 63 L 339.5 65 L 338.5 63 Z " /><path fill="rgb(0,0,0)" stroke="rgb(0,0,0)" stroke-width="1" opacity="0.7490196078431373" d="M 107.5 64 L 105.5 67 L 107.5 64 Z " /><path fill="rgb(0,0,0)" stroke="rgb(0,0,0)" stroke-width="1" opacity="0.7490196078431373" d="M 341.5 65 L 342.5 67 L 341.5 65 Z " /><path fill="rgb(0,0,0)" stroke="rgb(0,0,0)" stroke-width="1" opacity="0.7490196078431373" d="M 102.5 68 L 101.5 70 L 102.5 68 Z " /><path fill="rgb(0,0,0)" stroke="rgb(0,0,0)" stroke-width="1" opacity="0.7490196078431373" d="M 345.5 68 L 347.5 71 L 345.5 68 Z " /><path fill="rgb(0,0,0)" stroke="rgb(0,0,0)" stroke-width="1" opacity="0.7490196078431373" d="M 98.5 71 L 95.5 75 L 98.5 71 Z " /><path fill="rgb(0,0,0)" stroke="rgb(0,0,0)" stroke-width="1" opacity="0.7490196078431373" d="M 351.5 73 L 354.5 77 L 351.5 73 Z " /><path fill="rgb(0,0,0)" stroke="rgb(0,0,0)" stroke-width="1" opacity="0.7490196078431373" d="M 90.5 78 L 78.5 91 L 90.5 78 Z " /><path fill="rgb(0,0,0)" stroke="rgb(0,0,0)" stroke-width="1" opacity="0.7490196078431373" d="M 360.5 81 L 366.5 88 L 360.5 81 Z " /><path fill="rgb(0,0,0)" stroke="rgb(0,0,0)" stroke-width="1" opacity="0.7490196078431373" d="M 136.5 83 L 135.5 85 L 136.5 83 Z " /><path fill="rgb(0,0,0)" stroke="rgb(0,0,0)" stroke-width="1" opacity="0.7490196078431373" d="M 311.5 83 L 312.5 85 L 311.5 83 Z " /><path fill="rgb(0,0,0)" stroke="rgb(0,0,0)" stroke-width="1" opacity="0.7490196078431373" d="M 314.5 85 L 315.5 87 L 314.5 85 Z " /><path fill="rgb(0,0,0)" stroke="rgb(0,0,0)" stroke-width="1" opacity="0.7490196078431373" d="M 130.5 87 L 129.5 89 L 130.5 87 Z " /><path fill="rgb(0,0,0)" stroke="rgb(0,0,0)" stroke-width="1" opacity="0.7490196078431373" d="M 317.5 87 L 318.5 89 L 317.5 87 Z " /><path fill="rgb(0,0,0)" stroke="rgb(0,0,0)" stroke-width="1" opacity="0.7490196078431373" d="M 127.5 89 L 126.5 91 L 127.5 89 Z " /><path fill="rgb(0,0,0)" stroke="rgb(0,0,0)" stroke-width="1" opacity="0.7490196078431373" d="M 320.5 89 L 321.5 91 L 320.5 89 Z " /><path fill="rgb(0,0,0)" stroke="rgb(0,0,0)" stroke-width="1" opacity="0.7490196078431373" d="M 123.5 92 L 122.5 94 L 123.5 92 Z " /><path fill="rgb(0,0,0)" stroke="rgb(0,0,0)" stroke-width="1" opacity="0.7490196078431373" d="M 324.5 92 L 326.5 95 L 324.5 92 Z " /><path fill="rgb(0,0,0)" stroke="rgb(0,0,0)" stroke-width="1" opacity="0.7490196078431373" d="M 371.5 93 L 374.5 97 L 371.5 93 Z " /><path fill="rgb(0,0,0)" stroke="rgb(0,0,0)" stroke-width="1" opacity="0.7490196078431373" d="M 74.5 95 L 72.5 98 L 74.5 95 Z " /><path fill="rgb(0,0,0)" stroke="rgb(0,0,0)" stroke-width="1" opacity="0.7490196078431373" d="M 119.5 95 L 116.5 99 L 119.5 95 Z " /><path fill="rgb(0,0,0)" stroke="rgb(0,0,0)" stroke-width="1" opacity="0.7490196078431373" d="M 329.5 96 L 332.5 100 L 329.5 96 Z " /><path fill="rgb(0,0,0)" stroke="rgb(0,0,0)" stroke-width="1" opacity="0.7490196078431373" d="M 377.5 100 L 378.5 102 L 377.5 100 Z " /><path fill="rgb(0,0,0)" stroke="rgb(0,0,0)" stroke-width="1" opacity="0.7490196078431373" d="M 69.5 101 L 68.5 103 L 69.5 101 Z " /><path fill="rgb(0,0,0)" stroke="rgb(0,0,0)" stroke-width="1" opacity="0.7490196078431373" d="M 112.5 101 L 102.5 112 L 112.5 101 Z " /><path fill="rgb(0,0,0)" stroke="rgb(0,0,0)" stroke-width="1" opacity="0.7490196078431373" d="M 336.5 102 L 344.5 111 L 336.5 102 Z " /><path fill="rgb(0,0,0)" stroke="rgb(0,0,0)" stroke-width="1" opacity="0.7490196078431373" d="M 380.5 104 L 382.5 107 L 380.5 104 Z " /><path fill="rgb(0,0,0)" stroke="rgb(0,0,0)" stroke-width="1" opacity="0.7490196078431373" d="M 66.5 105 L 65.5 107 L 66.5 105 Z " /><path fill="rgb(0,0,0)" stroke="rgb(0,0,0)" stroke-width="1" opacity="0.7490196078431373" d="M 383.5 108 L 384.5 110 L 383.5 108 Z " /><path fill="rgb(0,0,0)" stroke="rgb(0,0,0)" stroke-width="1" opacity="0.7490196078431373" d="M 63.5 109 L 62.5 111 L 63.5 109 Z " /><path fill="rgb(0,0,0)" stroke="rgb(0,0,0)" stroke-width="1" opacity="0.7490196078431373" d="M 61.5 112 L 60.5 114 L 61.5 112 Z " /><path fill="rgb(0,0,0)" stroke="rgb(0,0,0)" stroke-width="1" opacity="0.7490196078431373" d="M 59.5 115 L 58.5 117 L 59.5 115 Z " /><path fill="rgb(0,0,0)" stroke="rgb(0,0,0)" stroke-width="1" opacity="0.7490196078431373" d="M 348.5 115 L 351.5 119 L 348.5 115 Z " /><path fill="rgb(0,0,0)" stroke="rgb(0,0,0)" stroke-width="1" opacity="0.7490196078431373" d="M 98.5 116 L 95.5 120 L 98.5 116 Z " /><path fill="rgb(0,0,0)" stroke="rgb(0,0,0)" stroke-width="1" opacity="0.7490196078431373" d="M 57.5 118 L 56.5 120 L 57.5 118 Z " /><path fill="rgb(0,0,0)" stroke="rgb(0,0,0)" stroke-width="1" opacity="0.7490196078431373" d="M 391.5 120 L 392.5 122 L 391.5 120 Z " /><path fill="rgb(0,0,0)" stroke="rgb(0,0,0)" stroke-width="1" opacity="0.7490196078431373" d="M 353.5 121 L 355.5 124 L 353.5 121 Z " /><path fill="rgb(0,0,0)" stroke="rgb(0,0,0)" stroke-width="1" opacity="0.7490196078431373" d="M 93.5 122 L 92.5 124 L 93.5 122 Z " /><path fill="rgb(0,0,0)" stroke="rgb(0,0,0)" stroke-width="1" opacity="0.7490196078431373" d="M 356.5 125 L 357.5 127 L 356.5 125 Z " /><path fill="rgb(0,0,0)" stroke="rgb(0,0,0)" stroke-width="1" opacity="0.7490196078431373" d="M 90.5 126 L 89.5 128 L 90.5 126 Z " /><path fill="rgb(0,0,0)" stroke="rgb(0,0,0)" stroke-width="1" opacity="0.7490196078431373" d="M 88.5 129 L 87.5 131 L 88.5 129 Z " /><path fill="rgb(0,0,0)" stroke="rgb(0,0,0)" stroke-width="1" opacity="0.7490196078431373" d="M 359.5 129 L 360.5 131 L 359.5 129 Z " /><path fill="rgb(0,0,0)" stroke="rgb(0,0,0)" stroke-width="1" opacity="0.7490196078431373" d="M 50.5 130 L 49.5 132 L 50.5 130 Z " /><path fill="rgb(0,0,0)" stroke="rgb(0,0,0)" stroke-width="1" opacity="0.7490196078431373" d="M 361.5 132 L 362.5 134 L 361.5 132 Z " /><path fill="rgb(0,0,0)" stroke="rgb(0,0,0)" stroke-width="1" opacity="0.7490196078431373" d="M 84.5 135 L 83.5 137 L 84.5 135 Z " /><path fill="rgb(0,0,0)" stroke="rgb(0,0,0)" stroke-width="1" opacity="0.7490196078431373" d="M 82.5 138 L 81.5 140 L 82.5 138 Z " /><path fill="rgb(0,0,0)" stroke="rgb(0,0,0)" stroke-width="1" opacity="0.7490196078431373" d="M 394.5 138 L 395 139.5 L 393 140.5 L 394.5 138 Z " /><path fill="rgb(0,0,0)" stroke="rgb(0,0,0)" stroke-width="1" opacity="0.7490196078431373" d="M 366.5 140 L 368.5 143 L 366.5 140 Z " /><path fill="rgb(0,0,0)" stroke="rgb(0,0,0)" stroke-width="1" opacity="0.7490196078431373" d="M 392.5 142 L 391.5 144 L 392.5 142 Z " /><path fill="rgb(0,0,0)" stroke="rgb(0,0,0)" stroke-width="1" opacity="0.7490196078431373" d="M 370.5 144 L 371.5 146 L 370.5 144 Z " /><path fill="rgb(0,0,0)" stroke="rgb(0,0,0)" stroke-width="1" opacity="0.7490196078431373" d="M 77.5 147 L 77 148.5 L 76.5 150 L 76 148.5 L 77.5 147 Z " /><path fill="rgb(0,0,0)" stroke="rgb(0,0,0)" stroke-width="1" opacity="0.7490196078431373" d="M 384.5 158 L 387 158.5 L 384.5 159 L 384.5 158 Z " /><path fill="rgb(0,0,0)" stroke="rgb(0,0,0)" stroke-width="1" opacity="0.7490196078431373" d="M 400.5 158 L 403 158.5 L 400.5 159 L 400.5 158 Z " /><path fill="rgb(0,0,0)" stroke="rgb(0,0,0)" stroke-width="1" opacity="0.7490196078431373" d="M 364.5 165 L 363.5 167 L 364.5 165 Z " /><path fill="rgb(0,0,0)" stroke="rgb(0,0,0)" stroke-width="1" opacity="0.7490196078431373" d="M 427.5 168 L 429.5 171 L 427.5 168 Z " /><path fill="rgb(0,0,0)" stroke="rgb(0,0,0)" stroke-width="1" opacity="0.7490196078431373" d="M 358.5 169 L 357.5 171 L 358.5 169 Z " /><path fill="rgb(0,0,0)" stroke="rgb(0,0,0)" stroke-width="1" opacity="0.7490196078431373" d="M 354.5 172 L 180.5 347 L 354.5 172 Z " /><path fill="rgb(0,0,0)" stroke="rgb(0,0,0)" stroke-width="1" opacity="0.7490196078431373" d="M 432.5 172 L 468.5 209 L 432.5 172 Z " /><path fill="rgb(0,0,0)" stroke="rgb(0,0,0)" stroke-width="1" opacity="0.7490196078431373" d="M 30.5 184 L 31 186.5 L 30 186.5 L 30.5 184 Z " /><path fill="rgb(0,0,0)" stroke="rgb(0,0,0)" stroke-width="1" opacity="0.7490196078431373" d="M 28.5 196 L 29 199.5 L 28 199.5 L 28.5 196 Z " /><path fill="rgb(0,0,0)" stroke="rgb(0,0,0)" stroke-width="1" opacity="0.7490196078431373" d="M 60.5 197 L 61 200.5 L 60 200.5 L 60.5 197 Z " /><path fill="rgb(0,0,0)" stroke="rgb(0,0,0)" stroke-width="1" opacity="0.7490196078431373" d="M 27.5 204 L 28 209.5 L 27 209.5 L 27.5 204 Z " /><path fill="rgb(0,0,0)" stroke="rgb(0,0,0)" stroke-width="1" opacity="0.7490196078431373" d="M 59.5 204 L 60 208.5 L 59 208.5 L 59.5 204 Z " /><path fill="rgb(0,0,0)" stroke="rgb(0,0,0)" stroke-width="1" opacity="0.7490196078431373" d="M 470.5 211 L 471.5 213 L 470.5 211 Z " /><path fill="rgb(0,0,0)" stroke="rgb(0,0,0)" stroke-width="1" opacity="0.7490196078431373" d="M 472.5 214 L 473.5 216 L 472.5 214 Z " /><path fill="rgb(0,0,0)" stroke="rgb(0,0,0)" stroke-width="1" opacity="0.7490196078431373" d="M 58.5 217 L 59 231.5 L 58 231.5 L 58.5 217 Z " /><path fill="rgb(0,0,0)" stroke="rgb(0,0,0)" stroke-width="1" opacity="0.7490196078431373" d="M 26.5 221 L 27 226.5 L 26 226.5 L 26.5 221 Z " /><path fill="rgb(0,0,0)" stroke="rgb(0,0,0)" stroke-width="1" opacity="0.7490196078431373" d="M 481.5 236 L 482 238.5 L 481 238.5 L 481.5 236 Z " /><path fill="rgb(0,0,0)" stroke="rgb(0,0,0)" stroke-width="1" opacity="0.7490196078431373" d="M 27.5 238 L 28 243.5 L 27 243.5 L 27.5 238 Z " /><path fill="rgb(0,0,0)" stroke="rgb(0,0,0)" stroke-width="1" opacity="0.7490196078431373" d="M 59.5 239 L 60 242.5 L 59 242.5 L 59.5 239 Z " /><path fill="rgb(0,0,0)" stroke="rgb(0,0,0)" stroke-width="1" opacity="0.7490196078431373" d="M 60.5 247 L 61 250.5 L 60 250.5 L 60.5 247 Z " /><path fill="rgb(0,0,0)" stroke="rgb(0,0,0)" stroke-width="1" opacity="0.7490196078431373" d="M 28.5 248 L 29 251.5 L 28 251.5 L 28.5 248 Z " /><path fill="rgb(0,0,0)" stroke="rgb(0,0,0)" stroke-width="1" opacity="0.7490196078431373" d="M 61.5 253 L 62 255.5 L 61 255.5 L 61.5 253 Z " /><path fill="rgb(0,0,0)" stroke="rgb(0,0,0)" stroke-width="1" opacity="0.7490196078431373" d="M 481.5 254 L 482 256.5 L 481 256.5 L 481.5 254 Z " /><path fill="rgb(0,0,0)" stroke="rgb(0,0,0)" stroke-width="1" opacity="0.7490196078431373" d="M 29.5 255 L 30 257.5 L 29 257.5 L 29.5 255 Z " /><path fill="rgb(0,0,0)" stroke="rgb(0,0,0)" stroke-width="1" opacity="0.7490196078431373" d="M 473.5 277 L 472.5 279 L 473.5 277 Z " /><path fill="rgb(0,0,0)" stroke="rgb(0,0,0)" stroke-width="1" opacity="0.7490196078431373" d="M 471.5 280 L 470.5 282 L 471.5 280 Z " /><path fill="rgb(0,0,0)" stroke="rgb(0,0,0)" stroke-width="1" opacity="0.7490196078431373" d="M 467.5 285 L 293.5 460 L 467.5 285 Z " /><path fill="rgb(0,0,0)" stroke="rgb(0,0,0)" stroke-width="1" opacity="0.7490196078431373" d="M 80.5 306 L 81.5 308 L 80.5 306 Z " /><path fill="rgb(0,0,0)" stroke="rgb(0,0,0)" stroke-width="1" opacity="0.7490196078431373" d="M 83.5 311 L 84.5 313 L 83.5 311 Z " /><path fill="rgb(0,0,0)" stroke="rgb(0,0,0)" stroke-width="1" opacity="0.7490196078431373" d="M 85.5 314 L 86.5 316 L 85.5 314 Z " /><path fill="rgb(0,0,0)" stroke="rgb(0,0,0)" stroke-width="1" opacity="0.7490196078431373" d="M 87.5 317 L 88.5 319 L 87.5 317 Z " /><path fill="rgb(0,0,0)" stroke="rgb(0,0,0)" stroke-width="1" opacity="0.7490196078431373" d="M 89.5 320 L 90.5 322 L 89.5 320 Z " /><path fill="rgb(0,0,0)" stroke="rgb(0,0,0)" stroke-width="1" opacity="0.7490196078431373" d="M 53.5 323 L 54.5 325 L 53.5 323 Z " /><path fill="rgb(0,0,0)" stroke="rgb(0,0,0)" stroke-width="1" opacity="0.7490196078431373" d="M 92.5 324 L 94.5 327 L 92.5 324 Z " /><path fill="rgb(0,0,0)" stroke="rgb(0,0,0)" stroke-width="1" opacity="0.7490196078431373" d="M 96.5 329 L 99.5 333 L 96.5 329 Z " /><path fill="rgb(0,0,0)" stroke="rgb(0,0,0)" stroke-width="1" opacity="0.7490196078431373" d="M 58.5 331 L 59.5 333 L 58.5 331 Z " /><path fill="rgb(0,0,0)" stroke="rgb(0,0,0)" stroke-width="1" opacity="0.7490196078431373" d="M 60.5 334 L 61.5 336 L 60.5 334 Z " /><path fill="rgb(0,0,0)" stroke="rgb(0,0,0)" stroke-width="1" opacity="0.7490196078431373" d="M 62.5 337 L 63.5 339 L 62.5 337 Z " /><path fill="rgb(0,0,0)" stroke="rgb(0,0,0)" stroke-width="1" opacity="0.7490196078431373" d="M 104.5 338 L 109.5 344 L 104.5 338 Z " /><path fill="rgb(0,0,0)" stroke="rgb(0,0,0)" stroke-width="1" opacity="0.7490196078431373" d="M 65.5 341 L 66.5 343 L 65.5 341 Z " /><path fill="rgb(0,0,0)" stroke="rgb(0,0,0)" stroke-width="1" opacity="0.7490196078431373" d="M 68.5 345 L 70.5 348 L 68.5 345 Z " /><path fill="rgb(0,0,0)" stroke="rgb(0,0,0)" stroke-width="1" opacity="0.7490196078431373" d="M 115.5 348 L 118.5 352 L 115.5 348 Z " /><path fill="rgb(0,0,0)" stroke="rgb(0,0,0)" stroke-width="1" opacity="0.7490196078431373" d="M 179.5 348 L 177.5 351 L 179.5 348 Z " /><path fill="rgb(0,0,0)" stroke="rgb(0,0,0)" stroke-width="1" opacity="0.7490196078431373" d="M 73.5 351 L 76.5 355 L 73.5 351 Z " /><path fill="rgb(0,0,0)" stroke="rgb(0,0,0)" stroke-width="1" opacity="0.7490196078431373" d="M 176.5 352 L 175.5 354 L 176.5 352 Z " /><path fill="rgb(0,0,0)" stroke="rgb(0,0,0)" stroke-width="1" opacity="0.7490196078431373" d="M 121.5 353 L 123.5 356 L 121.5 353 Z " /><path fill="rgb(0,0,0)" stroke="rgb(0,0,0)" stroke-width="1" opacity="0.7490196078431373" d="M 125.5 356 L 126.5 358 L 125.5 356 Z " /><path fill="rgb(0,0,0)" stroke="rgb(0,0,0)" stroke-width="1" opacity="0.7490196078431373" d="M 80.5 359 L 87.5 367 L 80.5 359 Z " /><path fill="rgb(0,0,0)" stroke="rgb(0,0,0)" stroke-width="1" opacity="0.7490196078431373" d="M 129.5 359 L 130.5 361 L 129.5 359 Z " /><path fill="rgb(0,0,0)" stroke="rgb(0,0,0)" stroke-width="1" opacity="0.7490196078431373" d="M 132.5 361 L 133.5 363 L 132.5 361 Z " /><path fill="rgb(0,0,0)" stroke="rgb(0,0,0)" stroke-width="1" opacity="0.7490196078431373" d="M 135.5 363 L 136.5 365 L 135.5 363 Z " /><path fill="rgb(0,0,0)" stroke="rgb(0,0,0)" stroke-width="1" opacity="0.7490196078431373" d="M 147.5 370 L 152.5 376 L 147.5 370 Z " /><path fill="rgb(0,0,0)" stroke="rgb(0,0,0)" stroke-width="1" opacity="0.7490196078431373" d="M 93.5 371 L 96.5 375 L 93.5 371 Z " /><path fill="rgb(0,0,0)" stroke="rgb(0,0,0)" stroke-width="1" opacity="0.7490196078431373" d="M 167.5 373 L 168 375.5 L 167 375.5 L 167.5 373 Z " /><path fill="rgb(0,0,0)" stroke="rgb(0,0,0)" stroke-width="1" opacity="0.7490196078431373" d="M 100.5 377 L 102.5 380 L 100.5 377 Z " /><path fill="rgb(0,0,0)" stroke="rgb(0,0,0)" stroke-width="1" opacity="0.7490196078431373" d="M 166.5 379 L 167 382.5 L 166 382.5 L 166.5 379 Z " /><path fill="rgb(0,0,0)" stroke="rgb(0,0,0)" stroke-width="1" opacity="0.7490196078431373" d="M 104.5 380 L 106.5 383 L 104.5 380 Z " /><path fill="rgb(0,0,0)" stroke="rgb(0,0,0)" stroke-width="1" opacity="0.7490196078431373" d="M 154.5 380 L 155 387.5 L 154 387.5 L 154.5 380 Z " /><path fill="rgb(0,0,0)" stroke="rgb(0,0,0)" stroke-width="1" opacity="0.7490196078431373" d="M 108.5 383 L 109.5 385 L 108.5 383 Z " /><path fill="rgb(0,0,0)" stroke="rgb(0,0,0)" stroke-width="1" opacity="0.7490196078431373" d="M 112.5 386 L 113.5 388 L 112.5 386 Z " /><path fill="rgb(0,0,0)" stroke="rgb(0,0,0)" stroke-width="1" opacity="0.7490196078431373" d="M 165.5 386 L 166 389.5 L 165 389.5 L 165.5 386 Z " /><path fill="rgb(0,0,0)" stroke="rgb(0,0,0)" stroke-width="1" opacity="0.7490196078431373" d="M 115.5 388 L 116.5 390 L 115.5 388 Z " /><path fill="rgb(0,0,0)" stroke="rgb(0,0,0)" stroke-width="1" opacity="0.7490196078431373" d="M 120.5 391 L 121.5 393 L 120.5 391 Z " /><path fill="rgb(0,0,0)" stroke="rgb(0,0,0)" stroke-width="1" opacity="0.7490196078431373" d="M 152.5 392 L 147.5 398 L 152.5 392 Z " /><path fill="rgb(0,0,0)" stroke="rgb(0,0,0)" stroke-width="1" opacity="0.7490196078431373" d="M 164.5 393 L 165 396.5 L 164 396.5 L 164.5 393 Z " /><path fill="rgb(0,0,0)" stroke="rgb(0,0,0)" stroke-width="1" opacity="0.7490196078431373" d="M 125.5 394 L 126.5 396 L 125.5 394 Z " /><path fill="rgb(0,0,0)" stroke="rgb(0,0,0)" stroke-width="1" opacity="0.7490196078431373" d="M 140.5 399 L 143 399.5 L 140.5 400 L 140.5 399 Z " /><path fill="rgb(0,0,0)" stroke="rgb(0,0,0)" stroke-width="1" opacity="0.7490196078431373" d="M 163.5 400 L 164 403.5 L 163 403.5 L 163.5 400 Z " /><path fill="rgb(0,0,0)" stroke="rgb(0,0,0)" stroke-width="1" opacity="0.7490196078431373" d="M 162.5 408 L 163 410.5 L 162 410.5 L 162.5 408 Z " /><path fill="rgb(0,0,0)" stroke="rgb(0,0,0)" stroke-width="1" opacity="0.7490196078431373" d="M 161.5 415 L 162 417.5 L 161 417.5 L 161.5 415 Z " /><path fill="rgb(0,0,0)" stroke="rgb(0,0,0)" stroke-width="1" opacity="0.7490196078431373" d="M 160.5 422 L 161 424.5 L 160 424.5 L 160.5 422 Z " /><path fill="rgb(0,0,0)" stroke="rgb(0,0,0)" stroke-width="1" opacity="0.7490196078431373" d="M 159.5 429 L 160 431.5 L 159 431.5 L 159.5 429 Z " /><path fill="rgb(0,0,0)" stroke="rgb(0,0,0)" stroke-width="1" opacity="0.7490196078431373" d="M 158.5 436 L 159 438.5 L 158 438.5 L 158.5 436 Z " /><path fill="rgb(0,0,0)" stroke="rgb(0,0,0)" stroke-width="1" opacity="0.7490196078431373" d="M 317.5 453 L 472 453.5 L 317.5 454 L 317.5 453 Z " /><path fill="rgb(0,0,0)" stroke="rgb(0,0,0)" stroke-width="1" opacity="0.7490196078431373" d="M 477.5 455 L 479.5 458 L 477.5 455 Z " /><path fill="rgb(0,0,0)" stroke="rgb(0,0,0)" stroke-width="1" opacity="0.7490196078431373" d="M 310.5 456 L 307.5 460 L 310.5 456 Z " /><path fill="rgb(0,0,0)" stroke="rgb(0,0,0)" stroke-width="1" opacity="0.7490196078431373" d="M 481.5 459 L 482.5 461 L 481.5 459 Z " /><path fill="rgb(0,0,0)" stroke="rgb(0,0,0)" stroke-width="1" opacity="0.7490196078431373" d="M 290.5 461 L 289.5 463 L 290.5 461 Z " /><path fill="rgb(0,0,0)" stroke="rgb(0,0,0)" stroke-width="1" opacity="0.7490196078431373" d="M 162.5 463 L 163.5 465 L 162.5 463 Z " /><path fill="rgb(0,0,0)" stroke="rgb(0,0,0)" stroke-width="1" opacity="0.7490196078431373" d="M 287.5 463 L 286.5 465 L 287.5 463 Z " /><path fill="rgb(0,0,0)" stroke="rgb(0,0,0)" stroke-width="1" opacity="0.7490196078431373" d="M 164.5 466 L 165.5 468 L 164.5 466 Z " /><path fill="rgb(0,0,0)" stroke="rgb(0,0,0)" stroke-width="1" opacity="0.7490196078431373" d="M 304.5 471 L 305 473.5 L 304 473.5 L 304.5 471 Z " /><path fill="rgb(0,0,0)" stroke="rgb(0,0,0)" stroke-width="1" opacity="0.7490196078431373" d="M 264.5 472 L 267 472.5 L 264.5 473 L 264.5 472 Z " /><path fill="rgb(0,0,0)" stroke="rgb(0,0,0)" stroke-width="1" opacity="0.7490196078431373" d="M 257.5 473 L 261 473.5 L 257.5 474 L 257.5 473 Z " /><path fill="rgb(0,0,0)" stroke="rgb(0,0,0)" stroke-width="1" opacity="0.7490196078431373" d="M 172.5 474 L 173.5 476 L 172.5 474 Z " /><path fill="rgb(0,0,0)" stroke="rgb(0,0,0)" stroke-width="1" opacity="0.7490196078431373" d="M 250.5 474 L 254 474.5 L 250.5 475 L 250.5 474 Z " /><path fill="rgb(0,0,0)" stroke="rgb(0,0,0)" stroke-width="1" opacity="0.7490196078431373" d="M 243.5 475 L 247 475.5 L 243.5 476 L 243.5 475 Z " /><path fill="rgb(0,0,0)" stroke="rgb(0,0,0)" stroke-width="1" opacity="0.7490196078431373" d="M 175.5 476 L 176.5 478 L 175.5 476 Z " /><path fill="rgb(0,0,0)" stroke="rgb(0,0,0)" stroke-width="1" opacity="0.7490196078431373" d="M 236.5 476 L 240 476.5 L 236.5 477 L 236.5 476 Z " /><path fill="rgb(0,0,0)" stroke="rgb(0,0,0)" stroke-width="1" opacity="0.7490196078431373" d="M 229.5 477 L 233 477.5 L 229.5 478 L 229.5 477 Z " /><path fill="rgb(0,0,0)" stroke="rgb(0,0,0)" stroke-width="1" opacity="0.7490196078431373" d="M 222.5 478 L 226 478.5 L 222.5 479 L 222.5 478 Z " /><path fill="rgb(0,0,0)" stroke="rgb(0,0,0)" stroke-width="1" opacity="0.7490196078431373" d="M 482.5 478 L 478.5 483 L 482.5 478 Z " /><path fill="rgb(0,0,0)" stroke="rgb(0,0,0)" stroke-width="1" opacity="0.7490196078431373" d="M 215.5 479 L 219 479.5 L 215.5 480 L 215.5 479 Z " /><path fill="rgb(0,0,0)" stroke="rgb(0,0,0)" stroke-width="1" opacity="0.7490196078431373" d="M 208.5 480 L 212 480.5 L 208.5 481 L 208.5 480 Z " /><path fill="rgb(0,0,0)" stroke="rgb(0,0,0)" stroke-width="1" opacity="0.7490196078431373" d="M 186.5 481 L 189 481.5 L 186.5 482 L 186.5 481 Z " /><path fill="rgb(0,0,0)" stroke="rgb(0,0,0)" stroke-width="1" opacity="0.7490196078431373" d="M 201.5 481 L 205 481.5 L 201.5 482 L 201.5 481 Z " /><path fill="rgb(0,0,0)" stroke="rgb(0,0,0)" stroke-width="1" opacity="0.7490196078431373" d="M 311.5 482 L 312.5 484 L 311.5 482 Z " /><path fill="rgb(0,0,0)" stroke="rgb(0,0,0)" stroke-width="1" opacity="1" d="M 210.5 27 L 237.5 27 L 238.5 28 L 254.5 29 L 277.5 34 L 295.5 40 Q 340.9 58.6 371 92.5 L 393 122.5 L 396 129.5 L 396 134.5 Q 394.4 141.4 389.5 145 L 382.5 148 L 377.5 148 L 369 144 Q 356.2 120.1 336.5 102 Q 314.2 81.3 283.5 69 L 268.5 64 L 250.5 60 L 231.5 59 L 230.5 58 L 217.5 58 L 216.5 59 L 204.5 59 L 187.5 62 L 159.5 71 Q 125.4 85.9 102 111.5 Q 81 133.5 69 164.5 L 64 179.5 L 60 197.5 L 59 216.5 L 58 217.5 L 58 231.5 L 59 232.5 L 59 242.5 L 60 243.5 L 60 250.5 L 62 260.5 L 71 288.5 Q 85.3 321.2 109.5 344 Q 125.2 359.8 146.5 370 L 153 376.5 L 154 388.5 Q 152.4 395.4 146.5 398 L 137.5 400 L 127.5 396 L 111.5 386 Q 92.3 372.7 77 355.5 Q 53.9 330.1 40 295.5 L 34 277.5 L 29 254.5 L 28 238.5 L 27 237.5 L 27 210.5 L 28 209.5 L 29 192.5 L 34 170.5 L 46 138.5 Q 64.5 101 94.5 75 Q 117.5 55 147.5 42 L 163.5 36 L 182.5 31 L 199.5 29 L 200.5 28 L 209.5 28 L 210.5 27 Z " /><path fill="rgb(0,0,0)" stroke="rgb(0,0,0)" stroke-width="1" opacity="1" d="M 387.5 158 L 405.5 159 L 423.5 166 L 430.5 171 L 470 210.5 Q 483 225 482 253.5 Q 479.1 271.1 470 282.5 L 291.5 461 Q 282.3 468.8 268.5 472 L 208.5 480 L 207.5 481 L 201.5 481 L 200.5 482 L 189.5 482 Q 174 479 166 468.5 Q 157 459 158 439.5 L 159 438.5 L 159 432.5 L 160 431.5 L 168 371.5 Q 171 360 177 351.5 L 356.5 171 L 371.5 162 L 387.5 158 Z " /><path fill="rgb(0,0,0)" stroke="rgb(0,0,0)" stroke-width="1" opacity="1" d="M 315.5 454 L 473.5 454 L 481 458 L 485 466.5 L 485 472.5 Q 483.2 479.7 477.5 483 L 472.5 485 L 316.5 485 L 307 478.5 Q 304 474.5 304 467.5 Q 305.4 459.4 311.5 456 L 315.5 454 Z " /></svg>