<svg width="512" height="512" version="1.1" xmlns="http://www.w3.org/2000/svg" desc="Created with imagetracer.js version 0.2.1" ><path fill="rgb(0,0,0)" stroke="rgb(0,0,0)" stroke-width="1" opacity="0.803921568627451" d="M 55.5 18 L 54.5 20 L 55.5 18 Z " /><path fill="rgb(0,0,0)" stroke="rgb(0,0,0)" stroke-width="1" opacity="0.803921568627451" d="M 72.5 18 L 77.5 24 L 72.5 18 Z " /><path fill="rgb(0,0,0)" stroke="rgb(0,0,0)" stroke-width="1" opacity="0.803921568627451" d="M 51.5 22 L 50.5 24 L 51.5 22 Z " /><path fill="rgb(0,0,0)" stroke="rgb(0,0,0)" stroke-width="1" opacity="0.803921568627451" d="M 135.5 34 L 134.5 36 L 135.5 34 Z " /><path fill="rgb(0,0,0)" stroke="rgb(0,0,0)" stroke-width="1" opacity="0.803921568627451" d="M 184.5 34 L 189.5 40 L 184.5 34 Z " /><path fill="rgb(0,0,0)" stroke="rgb(0,0,0)" stroke-width="1" opacity="0.803921568627451" d="M 231.5 34 L 230.5 36 L 231.5 34 Z " /><path fill="rgb(0,0,0)" stroke="rgb(0,0,0)" stroke-width="1" opacity="0.803921568627451" d="M 280.5 34 L 285.5 40 L 280.5 34 Z " /><path fill="rgb(0,0,0)" stroke="rgb(0,0,0)" stroke-width="1" opacity="0.803921568627451" d="M 327.5 34 L 326.5 36 L 327.5 34 Z " /><path fill="rgb(0,0,0)" stroke="rgb(0,0,0)" stroke-width="1" opacity="0.803921568627451" d="M 376.5 34 L 381.5 40 L 376.5 34 Z " /><path fill="rgb(0,0,0)" stroke="rgb(0,0,0)" stroke-width="1" opacity="0.803921568627451" d="M 423.5 34 L 422.5 36 L 423.5 34 Z " /><path fill="rgb(0,0,0)" stroke="rgb(0,0,0)" stroke-width="1" opacity="0.803921568627451" d="M 472.5 34 L 477.5 40 L 472.5 34 Z " /><path fill="rgb(0,0,0)" stroke="rgb(0,0,0)" stroke-width="1" opacity="0.803921568627451" d="M 131.5 38 L 130.5 40 L 131.5 38 Z " /><path fill="rgb(0,0,0)" stroke="rgb(0,0,0)" stroke-width="1" opacity="0.803921568627451" d="M 227.5 38 L 226.5 40 L 227.5 38 Z " /><path fill="rgb(0,0,0)" stroke="rgb(0,0,0)" stroke-width="1" opacity="0.803921568627451" d="M 323.5 38 L 322.5 40 L 323.5 38 Z " /><path fill="rgb(0,0,0)" stroke="rgb(0,0,0)" stroke-width="1" opacity="0.803921568627451" d="M 419.5 38 L 418.5 40 L 419.5 38 Z " /><path fill="rgb(0,0,0)" stroke="rgb(0,0,0)" stroke-width="1" opacity="0.803921568627451" d="M 23.5 50 L 22.5 52 L 23.5 50 Z " /><path fill="rgb(0,0,0)" stroke="rgb(0,0,0)" stroke-width="1" opacity="0.803921568627451" d="M 104.5 50 L 109.5 56 L 104.5 50 Z " /><path fill="rgb(0,0,0)" stroke="rgb(0,0,0)" stroke-width="1" opacity="0.803921568627451" d="M 19.5 54 L 18.5 56 L 19.5 54 Z " /><path fill="rgb(0,0,0)" stroke="rgb(0,0,0)" stroke-width="1" opacity="0.803921568627451" d="M 130.5 56 L 135.5 62 L 130.5 56 Z " /><path fill="rgb(0,0,0)" stroke="rgb(0,0,0)" stroke-width="1" opacity="0.803921568627451" d="M 189.5 56 L 184.5 62 L 189.5 56 Z " /><path fill="rgb(0,0,0)" stroke="rgb(0,0,0)" stroke-width="1" opacity="0.803921568627451" d="M 226.5 56 L 231.5 62 L 226.5 56 Z " /><path fill="rgb(0,0,0)" stroke="rgb(0,0,0)" stroke-width="1" opacity="0.803921568627451" d="M 285.5 56 L 280.5 62 L 285.5 56 Z " /><path fill="rgb(0,0,0)" stroke="rgb(0,0,0)" stroke-width="1" opacity="0.803921568627451" d="M 322.5 56 L 327.5 62 L 322.5 56 Z " /><path fill="rgb(0,0,0)" stroke="rgb(0,0,0)" stroke-width="1" opacity="0.803921568627451" d="M 381.5 56 L 376.5 62 L 381.5 56 Z " /><path fill="rgb(0,0,0)" stroke="rgb(0,0,0)" stroke-width="1" opacity="0.803921568627451" d="M 418.5 56 L 423.5 62 L 418.5 56 Z " /><path fill="rgb(0,0,0)" stroke="rgb(0,0,0)" stroke-width="1" opacity="0.803921568627451" d="M 18.5 72 L 23.5 78 L 18.5 72 Z " /><path fill="rgb(0,0,0)" stroke="rgb(0,0,0)" stroke-width="1" opacity="0.803921568627451" d="M 109.5 72 L 104.5 78 L 109.5 72 Z " /><path fill="rgb(0,0,0)" stroke="rgb(0,0,0)" stroke-width="1" opacity="0.803921568627451" d="M 450.5 88 L 455.5 94 L 450.5 88 Z " /><path fill="rgb(0,0,0)" stroke="rgb(0,0,0)" stroke-width="1" opacity="0.803921568627451" d="M 477.5 88 L 472.5 94 L 477.5 88 Z " /><path fill="rgb(0,0,0)" stroke="rgb(0,0,0)" stroke-width="1" opacity="0.803921568627451" d="M 137.5 96 L 142 96.5 L 137.5 97 L 137.5 96 Z " /><path fill="rgb(0,0,0)" stroke="rgb(0,0,0)" stroke-width="1" opacity="0.803921568627451" d="M 370.5 96 L 375 96.5 L 370.5 97 L 370.5 96 Z " /><path fill="rgb(0,0,0)" stroke="rgb(0,0,0)" stroke-width="1" opacity="0.803921568627451" d="M 50.5 104 L 55.5 110 L 50.5 104 Z " /><path fill="rgb(0,0,0)" stroke="rgb(0,0,0)" stroke-width="1" opacity="0.803921568627451" d="M 77.5 104 L 72.5 110 L 77.5 104 Z " /><path fill="rgb(0,0,0)" stroke="rgb(0,0,0)" stroke-width="1" opacity="0.803921568627451" d="M 115.5 105 L 114.5 107 L 115.5 105 Z " /><path fill="rgb(0,0,0)" stroke="rgb(0,0,0)" stroke-width="1" opacity="0.803921568627451" d="M 396.5 105 L 397.5 107 L 396.5 105 Z " /><path fill="rgb(0,0,0)" stroke="rgb(0,0,0)" stroke-width="1" opacity="0.803921568627451" d="M 106.5 114 L 105.5 116 L 106.5 114 Z " /><path fill="rgb(0,0,0)" stroke="rgb(0,0,0)" stroke-width="1" opacity="0.803921568627451" d="M 405.5 114 L 406.5 116 L 405.5 114 Z " /><path fill="rgb(0,0,0)" stroke="rgb(0,0,0)" stroke-width="1" opacity="0.803921568627451" d="M 136.5 129 L 135.5 131 L 136.5 129 Z " /><path fill="rgb(0,0,0)" stroke="rgb(0,0,0)" stroke-width="1" opacity="0.803921568627451" d="M 375.5 129 L 376.5 131 L 375.5 129 Z " /><path fill="rgb(0,0,0)" stroke="rgb(0,0,0)" stroke-width="1" opacity="0.803921568627451" d="M 39.5 130 L 38.5 132 L 39.5 130 Z " /><path fill="rgb(0,0,0)" stroke="rgb(0,0,0)" stroke-width="1" opacity="0.803921568627451" d="M 56.5 130 L 61.5 136 L 56.5 130 Z " /><path fill="rgb(0,0,0)" stroke="rgb(0,0,0)" stroke-width="1" opacity="0.803921568627451" d="M 455.5 130 L 454.5 132 L 455.5 130 Z " /><path fill="rgb(0,0,0)" stroke="rgb(0,0,0)" stroke-width="1" opacity="0.803921568627451" d="M 472.5 130 L 477.5 136 L 472.5 130 Z " /><path fill="rgb(0,0,0)" stroke="rgb(0,0,0)" stroke-width="1" opacity="0.803921568627451" d="M 133.5 131 L 131.5 134 L 133.5 131 Z " /><path fill="rgb(0,0,0)" stroke="rgb(0,0,0)" stroke-width="1" opacity="0.803921568627451" d="M 378.5 131 L 380.5 134 L 378.5 131 Z " /><path fill="rgb(0,0,0)" stroke="rgb(0,0,0)" stroke-width="1" opacity="0.803921568627451" d="M 35.5 134 L 34.5 136 L 35.5 134 Z " /><path fill="rgb(0,0,0)" stroke="rgb(0,0,0)" stroke-width="1" opacity="0.803921568627451" d="M 451.5 134 L 450.5 136 L 451.5 134 Z " /><path fill="rgb(0,0,0)" stroke="rgb(0,0,0)" stroke-width="1" opacity="0.803921568627451" d="M 130.5 135 L 129.5 137 L 130.5 135 Z " /><path fill="rgb(0,0,0)" stroke="rgb(0,0,0)" stroke-width="1" opacity="0.803921568627451" d="M 381.5 135 L 382.5 137 L 381.5 135 Z " /><path fill="rgb(0,0,0)" stroke="rgb(0,0,0)" stroke-width="1" opacity="0.803921568627451" d="M 96.5 137 L 97 141.5 L 96 141.5 L 96.5 137 Z " /><path fill="rgb(0,0,0)" stroke="rgb(0,0,0)" stroke-width="1" opacity="0.803921568627451" d="M 415.5 137 L 416 141.5 L 415 141.5 L 415.5 137 Z " /><path fill="rgb(0,0,0)" stroke="rgb(0,0,0)" stroke-width="1" opacity="0.803921568627451" d="M 34.5 184 L 39.5 190 L 34.5 184 Z " /><path fill="rgb(0,0,0)" stroke="rgb(0,0,0)" stroke-width="1" opacity="0.803921568627451" d="M 61.5 184 L 56.5 190 L 61.5 184 Z " /><path fill="rgb(0,0,0)" stroke="rgb(0,0,0)" stroke-width="1" opacity="0.803921568627451" d="M 450.5 184 L 455.5 190 L 450.5 184 Z " /><path fill="rgb(0,0,0)" stroke="rgb(0,0,0)" stroke-width="1" opacity="0.803921568627451" d="M 477.5 184 L 472.5 190 L 477.5 184 Z " /><path fill="rgb(0,0,0)" stroke="rgb(0,0,0)" stroke-width="1" opacity="0.803921568627451" d="M 39.5 226 L 38.5 228 L 39.5 226 Z " /><path fill="rgb(0,0,0)" stroke="rgb(0,0,0)" stroke-width="1" opacity="0.803921568627451" d="M 56.5 226 L 61.5 232 L 56.5 226 Z " /><path fill="rgb(0,0,0)" stroke="rgb(0,0,0)" stroke-width="1" opacity="0.803921568627451" d="M 455.5 226 L 454.5 228 L 455.5 226 Z " /><path fill="rgb(0,0,0)" stroke="rgb(0,0,0)" stroke-width="1" opacity="0.803921568627451" d="M 472.5 226 L 477.5 232 L 472.5 226 Z " /><path fill="rgb(0,0,0)" stroke="rgb(0,0,0)" stroke-width="1" opacity="0.803921568627451" d="M 35.5 230 L 34.5 232 L 35.5 230 Z " /><path fill="rgb(0,0,0)" stroke="rgb(0,0,0)" stroke-width="1" opacity="0.803921568627451" d="M 451.5 230 L 450.5 232 L 451.5 230 Z " /><path fill="rgb(0,0,0)" stroke="rgb(0,0,0)" stroke-width="1" opacity="0.803921568627451" d="M 34.5 280 L 39.5 286 L 34.5 280 Z " /><path fill="rgb(0,0,0)" stroke="rgb(0,0,0)" stroke-width="1" opacity="0.803921568627451" d="M 61.5 280 L 56.5 286 L 61.5 280 Z " /><path fill="rgb(0,0,0)" stroke="rgb(0,0,0)" stroke-width="1" opacity="0.803921568627451" d="M 450.5 280 L 455.5 286 L 450.5 280 Z " /><path fill="rgb(0,0,0)" stroke="rgb(0,0,0)" stroke-width="1" opacity="0.803921568627451" d="M 477.5 280 L 472.5 286 L 477.5 280 Z " /><path fill="rgb(0,0,0)" stroke="rgb(0,0,0)" stroke-width="1" opacity="0.803921568627451" d="M 39.5 322 L 38.5 324 L 39.5 322 Z " /><path fill="rgb(0,0,0)" stroke="rgb(0,0,0)" stroke-width="1" opacity="0.803921568627451" d="M 56.5 322 L 61.5 328 L 56.5 322 Z " /><path fill="rgb(0,0,0)" stroke="rgb(0,0,0)" stroke-width="1" opacity="0.803921568627451" d="M 455.5 322 L 454.5 324 L 455.5 322 Z " /><path fill="rgb(0,0,0)" stroke="rgb(0,0,0)" stroke-width="1" opacity="0.803921568627451" d="M 472.5 322 L 477.5 328 L 472.5 322 Z " /><path fill="rgb(0,0,0)" stroke="rgb(0,0,0)" stroke-width="1" opacity="0.803921568627451" d="M 35.5 326 L 34.5 328 L 35.5 326 Z " /><path fill="rgb(0,0,0)" stroke="rgb(0,0,0)" stroke-width="1" opacity="0.803921568627451" d="M 451.5 326 L 450.5 328 L 451.5 326 Z " /><path fill="rgb(0,0,0)" stroke="rgb(0,0,0)" stroke-width="1" opacity="0.803921568627451" d="M 96.5 370 L 97 374.5 L 96 374.5 L 96.5 370 Z " /><path fill="rgb(0,0,0)" stroke="rgb(0,0,0)" stroke-width="1" opacity="0.803921568627451" d="M 415.5 370 L 416 374.5 L 415 374.5 L 415.5 370 Z " /><path fill="rgb(0,0,0)" stroke="rgb(0,0,0)" stroke-width="1" opacity="0.803921568627451" d="M 129.5 375 L 130.5 377 L 129.5 375 Z " /><path fill="rgb(0,0,0)" stroke="rgb(0,0,0)" stroke-width="1" opacity="0.803921568627451" d="M 382.5 375 L 381.5 377 L 382.5 375 Z " /><path fill="rgb(0,0,0)" stroke="rgb(0,0,0)" stroke-width="1" opacity="0.803921568627451" d="M 34.5 376 L 39.5 382 L 34.5 376 Z " /><path fill="rgb(0,0,0)" stroke="rgb(0,0,0)" stroke-width="1" opacity="0.803921568627451" d="M 61.5 376 L 56.5 382 L 61.5 376 Z " /><path fill="rgb(0,0,0)" stroke="rgb(0,0,0)" stroke-width="1" opacity="0.803921568627451" d="M 450.5 376 L 455.5 382 L 450.5 376 Z " /><path fill="rgb(0,0,0)" stroke="rgb(0,0,0)" stroke-width="1" opacity="0.803921568627451" d="M 477.5 376 L 472.5 382 L 477.5 376 Z " /><path fill="rgb(0,0,0)" stroke="rgb(0,0,0)" stroke-width="1" opacity="0.803921568627451" d="M 131.5 378 L 133.5 381 L 131.5 378 Z " /><path fill="rgb(0,0,0)" stroke="rgb(0,0,0)" stroke-width="1" opacity="0.803921568627451" d="M 380.5 378 L 378.5 381 L 380.5 378 Z " /><path fill="rgb(0,0,0)" stroke="rgb(0,0,0)" stroke-width="1" opacity="0.803921568627451" d="M 135.5 381 L 136.5 383 L 135.5 381 Z " /><path fill="rgb(0,0,0)" stroke="rgb(0,0,0)" stroke-width="1" opacity="0.803921568627451" d="M 376.5 381 L 375.5 383 L 374 382.5 L 376.5 381 Z " /><path fill="rgb(0,0,0)" stroke="rgb(0,0,0)" stroke-width="1" opacity="0.803921568627451" d="M 105.5 396 L 106.5 398 L 105.5 396 Z " /><path fill="rgb(0,0,0)" stroke="rgb(0,0,0)" stroke-width="1" opacity="0.803921568627451" d="M 406.5 396 L 405.5 398 L 406.5 396 Z " /><path fill="rgb(0,0,0)" stroke="rgb(0,0,0)" stroke-width="1" opacity="0.803921568627451" d="M 114.5 405 L 115.5 407 L 114.5 405 Z " /><path fill="rgb(0,0,0)" stroke="rgb(0,0,0)" stroke-width="1" opacity="0.803921568627451" d="M 397.5 405 L 396.5 407 L 397.5 405 Z " /><path fill="rgb(0,0,0)" stroke="rgb(0,0,0)" stroke-width="1" opacity="0.803921568627451" d="M 137.5 415 L 142 415.5 L 137.5 416 L 137.5 415 Z " /><path fill="rgb(0,0,0)" stroke="rgb(0,0,0)" stroke-width="1" opacity="0.803921568627451" d="M 370.5 415 L 375 415.5 L 370.5 416 L 370.5 415 Z " /><path fill="rgb(0,0,0)" stroke="rgb(0,0,0)" stroke-width="1" opacity="0.803921568627451" d="M 39.5 418 L 38.5 420 L 39.5 418 Z " /><path fill="rgb(0,0,0)" stroke="rgb(0,0,0)" stroke-width="1" opacity="0.803921568627451" d="M 56.5 418 L 61.5 424 L 56.5 418 Z " /><path fill="rgb(0,0,0)" stroke="rgb(0,0,0)" stroke-width="1" opacity="0.803921568627451" d="M 455.5 418 L 454.5 420 L 455.5 418 Z " /><path fill="rgb(0,0,0)" stroke="rgb(0,0,0)" stroke-width="1" opacity="0.803921568627451" d="M 472.5 418 L 477.5 424 L 472.5 418 Z " /><path fill="rgb(0,0,0)" stroke="rgb(0,0,0)" stroke-width="1" opacity="0.803921568627451" d="M 35.5 422 L 34.5 424 L 35.5 422 Z " /><path fill="rgb(0,0,0)" stroke="rgb(0,0,0)" stroke-width="1" opacity="0.803921568627451" d="M 451.5 422 L 450.5 424 L 451.5 422 Z " /><path fill="rgb(0,0,0)" stroke="rgb(0,0,0)" stroke-width="1" opacity="0.803921568627451" d="M 88.5 450 L 93.5 456 L 88.5 450 Z " /><path fill="rgb(0,0,0)" stroke="rgb(0,0,0)" stroke-width="1" opacity="0.803921568627451" d="M 135.5 450 L 134.5 452 L 135.5 450 Z " /><path fill="rgb(0,0,0)" stroke="rgb(0,0,0)" stroke-width="1" opacity="0.803921568627451" d="M 184.5 450 L 189.5 456 L 184.5 450 Z " /><path fill="rgb(0,0,0)" stroke="rgb(0,0,0)" stroke-width="1" opacity="0.803921568627451" d="M 231.5 450 L 230.5 452 L 231.5 450 Z " /><path fill="rgb(0,0,0)" stroke="rgb(0,0,0)" stroke-width="1" opacity="0.803921568627451" d="M 280.5 450 L 285.5 456 L 280.5 450 Z " /><path fill="rgb(0,0,0)" stroke="rgb(0,0,0)" stroke-width="1" opacity="0.803921568627451" d="M 327.5 450 L 326.5 452 L 327.5 450 Z " /><path fill="rgb(0,0,0)" stroke="rgb(0,0,0)" stroke-width="1" opacity="0.803921568627451" d="M 376.5 450 L 381.5 456 L 376.5 450 Z " /><path fill="rgb(0,0,0)" stroke="rgb(0,0,0)" stroke-width="1" opacity="0.803921568627451" d="M 423.5 450 L 422.5 452 L 423.5 450 Z " /><path fill="rgb(0,0,0)" stroke="rgb(0,0,0)" stroke-width="1" opacity="0.803921568627451" d="M 131.5 454 L 130.5 456 L 131.5 454 Z " /><path fill="rgb(0,0,0)" stroke="rgb(0,0,0)" stroke-width="1" opacity="0.803921568627451" d="M 227.5 454 L 226.5 456 L 227.5 454 Z " /><path fill="rgb(0,0,0)" stroke="rgb(0,0,0)" stroke-width="1" opacity="0.803921568627451" d="M 323.5 454 L 322.5 456 L 323.5 454 Z " /><path fill="rgb(0,0,0)" stroke="rgb(0,0,0)" stroke-width="1" opacity="0.803921568627451" d="M 419.5 454 L 418.5 456 L 419.5 454 Z " /><path fill="rgb(0,0,0)" stroke="rgb(0,0,0)" stroke-width="1" opacity="0.803921568627451" d="M 34.5 472 L 39.5 478 L 34.5 472 Z " /><path fill="rgb(0,0,0)" stroke="rgb(0,0,0)" stroke-width="1" opacity="0.803921568627451" d="M 93.5 472 L 88.5 478 L 93.5 472 Z " /><path fill="rgb(0,0,0)" stroke="rgb(0,0,0)" stroke-width="1" opacity="0.803921568627451" d="M 130.5 472 L 135.5 478 L 130.5 472 Z " /><path fill="rgb(0,0,0)" stroke="rgb(0,0,0)" stroke-width="1" opacity="0.803921568627451" d="M 189.5 472 L 184.5 478 L 189.5 472 Z " /><path fill="rgb(0,0,0)" stroke="rgb(0,0,0)" stroke-width="1" opacity="0.803921568627451" d="M 226.5 472 L 231.5 478 L 226.5 472 Z " /><path fill="rgb(0,0,0)" stroke="rgb(0,0,0)" stroke-width="1" opacity="0.803921568627451" d="M 285.5 472 L 280.5 478 L 285.5 472 Z " /><path fill="rgb(0,0,0)" stroke="rgb(0,0,0)" stroke-width="1" opacity="0.803921568627451" d="M 322.5 472 L 327.5 478 L 322.5 472 Z " /><path fill="rgb(0,0,0)" stroke="rgb(0,0,0)" stroke-width="1" opacity="0.803921568627451" d="M 381.5 472 L 376.5 478 L 381.5 472 Z " /><path fill="rgb(0,0,0)" stroke="rgb(0,0,0)" stroke-width="1" opacity="0.803921568627451" d="M 418.5 472 L 423.5 478 L 418.5 472 Z " /><path fill="rgb(0,0,0)" stroke="rgb(0,0,0)" stroke-width="1" opacity="0.803921568627451" d="M 477.5 472 L 472.5 478 L 477.5 472 Z " /><path fill="rgb(0,0,0)" stroke="rgb(0,0,0)" stroke-width="1" opacity="0" d="M 0 0 L 512 0 L 512 512 L 0 512 L 0 0 Z M 61 16 L 56 18 Q 50 21 48 29 L 48 48 L 29 48 L 24 50 Q 18 53 16 61 Q 15 69 18 73 Q 21 78 29 80 L 48 80 L 48 100 L 50 105 Q 53 110 61 112 Q 69 113 73 110 Q 78 107 80 100 L 80 80 L 100 80 L 105 78 Q 110 75 112 68 Q 113 60 110 56 Q 107 50 100 48 L 80 48 L 80 29 L 78 24 Q 74 15 61 16 Z M 141 32 L 136 34 Q 130 37 128 45 Q 127 53 130 57 Q 133 62 141 64 L 180 64 L 185 62 Q 190 59 192 52 Q 193 44 190 40 Q 187 34 180 32 L 141 32 Z M 237 32 L 232 34 Q 226 37 224 45 Q 223 53 226 57 Q 229 62 237 64 L 276 64 L 281 62 Q 286 59 288 52 Q 289 44 286 40 Q 283 34 276 32 L 237 32 Z M 333 32 L 328 34 Q 322 37 320 45 Q 319 53 322 57 Q 325 62 333 64 L 372 64 L 377 62 Q 382 59 384 52 Q 385 44 382 40 Q 379 34 372 32 L 333 32 Z M 429 32 L 424 34 Q 418 37 416 45 Q 415 53 418 57 Q 421 62 429 64 L 448 64 L 448 84 L 450 89 Q 453 94 461 96 Q 469 97 473 94 Q 478 91 480 84 L 480 45 L 478 40 Q 475 34 468 32 L 429 32 Z M 138 96 Q 124 98 116 105 Q 100 116 96 138 L 96 375 Q 98 388 105 397 Q 116 412 138 416 L 375 416 Q 388 414 397 407 Q 412 396 416 375 L 416 138 Q 414 124 407 116 Q 396 100 375 96 L 138 96 Z M 45 128 L 40 130 Q 34 133 32 141 L 32 180 L 34 185 Q 37 190 45 192 Q 53 193 57 190 Q 62 187 64 180 L 64 141 L 62 136 Q 58 127 45 128 Z M 461 128 L 456 130 Q 450 133 448 141 L 448 180 L 450 185 Q 453 190 461 192 Q 469 193 473 190 Q 478 187 480 180 L 480 141 L 478 136 Q 474 127 461 128 Z M 45 224 L 40 226 Q 34 229 32 237 L 32 276 L 34 281 Q 37 286 45 288 Q 53 289 57 286 Q 62 283 64 276 L 64 237 L 62 232 Q 58 223 45 224 Z M 461 224 L 456 226 Q 450 229 448 237 L 448 276 L 450 281 Q 453 286 461 288 Q 469 289 473 286 Q 478 283 480 276 L 480 237 L 478 232 Q 474 223 461 224 Z M 45 320 L 40 322 Q 34 325 32 333 L 32 372 L 34 377 Q 37 382 45 384 Q 53 385 57 382 Q 62 379 64 372 L 64 333 L 62 328 Q 58 319 45 320 Z M 461 320 L 456 322 Q 450 325 448 333 L 448 372 L 450 377 Q 453 382 461 384 Q 469 385 473 382 Q 478 379 480 372 L 480 333 L 478 328 Q 474 319 461 320 Z M 45 416 L 40 418 Q 34 421 32 429 L 32 468 L 34 473 Q 37 478 45 480 L 84 480 L 89 478 Q 94 475 96 468 Q 97 460 94 456 Q 91 450 84 448 L 64 448 L 64 429 L 62 424 Q 58 415 45 416 Z M 461 416 L 456 418 Q 450 421 448 429 L 448 448 L 429 448 L 424 450 Q 418 453 416 461 Q 415 469 418 473 Q 421 478 429 480 L 468 480 L 473 478 Q 478 475 480 468 L 480 429 L 478 424 Q 474 415 461 416 Z M 141 448 L 136 450 Q 130 453 128 461 Q 127 469 130 473 Q 133 478 141 480 L 180 480 L 185 478 Q 190 475 192 468 Q 193 460 190 456 Q 187 450 180 448 L 141 448 Z M 237 448 L 232 450 Q 226 453 224 461 Q 223 469 226 473 Q 229 478 237 480 L 276 480 L 281 478 Q 286 475 288 468 Q 289 460 286 456 Q 283 450 276 448 L 237 448 Z M 333 448 L 328 450 Q 322 453 320 461 Q 319 469 322 473 Q 325 478 333 480 L 372 480 L 377 478 Q 382 475 384 468 Q 385 460 382 456 Q 379 450 372 448 L 333 448 Z " /><path fill="rgb(0,0,0)" stroke="rgb(0,0,0)" stroke-width="1" opacity="0" d="M 140.5 128 L 370.5 128 Q 377.9 129.1 381 134.5 L 384 140.5 L 384 370.5 Q 382.9 377.9 377.5 381 L 370.5 384 L 141.5 384 Q 134.1 382.9 131 377.5 L 128 371.5 L 128 140.5 L 134.5 131 L 140.5 128 Z " /><path fill="rgb(0,0,0)" stroke="rgb(0,0,0)" stroke-width="1" opacity="1" d="M 62.5 16 Q 74.1 16.4 78 24.5 L 80 30.5 L 80 48 L 97.5 48 L 101.5 49 L 110 56.5 L 112 65.5 Q 110.4 74.4 103.5 78 L 97.5 80 L 80 80 L 80 97.5 L 79 101.5 L 71.5 110 L 62.5 112 Q 53.6 110.4 50 103.5 L 48 97.5 L 48 80 L 30.5 80 L 26.5 79 L 18 71.5 L 16 62.5 Q 17.3 55.8 21.5 52 L 30.5 48 L 48 48 L 48 30.5 Q 49.3 23.8 53.5 20 L 62.5 16 Z " /><path fill="rgb(0,0,0)" stroke="rgb(0,0,0)" stroke-width="1" opacity="1" d="M 142.5 32 L 177.5 32 Q 186.4 33.6 190 40.5 L 192 49.5 Q 190.4 58.4 183.5 62 L 177.5 64 L 142.5 64 Q 133.6 62.4 130 55.5 L 128 46.5 Q 129.3 39.8 133.5 36 L 142.5 32 Z " /><path fill="rgb(0,0,0)" stroke="rgb(0,0,0)" stroke-width="1" opacity="1" d="M 238.5 32 L 273.5 32 Q 282.4 33.6 286 40.5 L 288 49.5 Q 286.4 58.4 279.5 62 L 273.5 64 L 238.5 64 Q 229.6 62.4 226 55.5 L 224 46.5 Q 225.3 39.8 229.5 36 L 238.5 32 Z " /><path fill="rgb(0,0,0)" stroke="rgb(0,0,0)" stroke-width="1" opacity="1" d="M 334.5 32 L 369.5 32 Q 378.4 33.6 382 40.5 L 384 49.5 Q 382.4 58.4 375.5 62 L 369.5 64 L 334.5 64 Q 325.6 62.4 322 55.5 L 320 46.5 Q 321.3 39.8 325.5 36 L 334.5 32 Z " /><path fill="rgb(0,0,0)" stroke="rgb(0,0,0)" stroke-width="1" opacity="1" d="M 430.5 32 L 465.5 32 Q 474.4 33.6 478 40.5 L 480 46.5 L 480 81.5 Q 478.4 90.4 471.5 94 L 462.5 96 Q 453.6 94.4 450 87.5 L 448 81.5 L 448 64 L 430.5 64 L 426.5 63 L 418 55.5 L 416 46.5 Q 417.3 39.8 421.5 36 L 430.5 32 Z " /><path fill="rgb(0,0,0)" stroke="rgb(0,0,0)" stroke-width="1" opacity="1" d="M 142.5 96 L 369.5 96 L 384.5 99 Q 397.2 103.8 405 113.5 L 413 127.5 L 416 142.5 L 416 369.5 L 413 384.5 Q 408.2 397.2 398.5 405 L 384.5 413 L 369.5 416 L 142.5 416 L 127.5 413 Q 114.8 408.2 107 398.5 L 99 384.5 L 96 369.5 L 96 142.5 L 99 127.5 Q 103.8 114.8 113.5 107 L 127.5 99 L 142.5 96 Z M 140 128 L 134 131 L 128 140 L 128 373 L 131 379 L 140 384 L 373 384 L 379 381 L 384 373 L 384 140 L 381 134 L 373 128 L 140 128 Z " /><path fill="rgb(0,0,0)" stroke="rgb(0,0,0)" stroke-width="1" opacity="1" d="M 46.5 128 Q 58.1 128.4 62 136.5 L 64 142.5 L 64 177.5 Q 62.4 186.4 55.5 190 L 46.5 192 Q 37.6 190.4 34 183.5 L 32 177.5 L 32 142.5 Q 33.3 135.8 37.5 132 L 46.5 128 Z " /><path fill="rgb(0,0,0)" stroke="rgb(0,0,0)" stroke-width="1" opacity="1" d="M 462.5 128 Q 474.1 128.4 478 136.5 L 480 142.5 L 480 177.5 Q 478.4 186.4 471.5 190 L 462.5 192 Q 453.6 190.4 450 183.5 L 448 177.5 L 448 142.5 Q 449.3 135.8 453.5 132 L 462.5 128 Z " /><path fill="rgb(0,0,0)" stroke="rgb(0,0,0)" stroke-width="1" opacity="1" d="M 46.5 224 Q 58.1 224.4 62 232.5 L 64 238.5 L 64 273.5 Q 62.4 282.4 55.5 286 L 46.5 288 Q 37.6 286.4 34 279.5 L 32 273.5 L 32 238.5 Q 33.3 231.8 37.5 228 L 46.5 224 Z " /><path fill="rgb(0,0,0)" stroke="rgb(0,0,0)" stroke-width="1" opacity="1" d="M 462.5 224 Q 474.1 224.4 478 232.5 L 480 238.5 L 480 273.5 Q 478.4 282.4 471.5 286 L 462.5 288 Q 453.6 286.4 450 279.5 L 448 273.5 L 448 238.5 Q 449.3 231.8 453.5 228 L 462.5 224 Z " /><path fill="rgb(0,0,0)" stroke="rgb(0,0,0)" stroke-width="1" opacity="1" d="M 46.5 320 Q 58.1 320.4 62 328.5 L 64 334.5 L 64 369.5 Q 62.4 378.4 55.5 382 L 46.5 384 Q 37.6 382.4 34 375.5 L 32 369.5 L 32 334.5 Q 33.3 327.8 37.5 324 L 46.5 320 Z " /><path fill="rgb(0,0,0)" stroke="rgb(0,0,0)" stroke-width="1" opacity="1" d="M 462.5 320 Q 474.1 320.4 478 328.5 L 480 334.5 L 480 369.5 Q 478.4 378.4 471.5 382 L 462.5 384 Q 453.6 382.4 450 375.5 L 448 369.5 L 448 334.5 Q 449.3 327.8 453.5 324 L 462.5 320 Z " /><path fill="rgb(0,0,0)" stroke="rgb(0,0,0)" stroke-width="1" opacity="1" d="M 46.5 416 Q 58.1 416.4 62 424.5 L 64 430.5 L 64 448 L 81.5 448 L 85.5 449 L 94 456.5 L 96 465.5 Q 94.4 474.4 87.5 478 L 81.5 480 L 46.5 480 Q 37.6 478.4 34 471.5 L 32 465.5 L 32 430.5 Q 33.3 423.8 37.5 420 L 46.5 416 Z " /><path fill="rgb(0,0,0)" stroke="rgb(0,0,0)" stroke-width="1" opacity="1" d="M 462.5 416 Q 474.1 416.4 478 424.5 L 480 430.5 L 480 465.5 Q 478.4 474.4 471.5 478 L 465.5 480 L 430.5 480 Q 421.6 478.4 418 471.5 L 416 462.5 Q 417.3 455.8 421.5 452 L 430.5 448 L 448 448 L 448 430.5 Q 449.3 423.8 453.5 420 L 462.5 416 Z " /><path fill="rgb(0,0,0)" stroke="rgb(0,0,0)" stroke-width="1" opacity="1" d="M 142.5 448 L 177.5 448 Q 186.4 449.6 190 456.5 L 192 465.5 Q 190.4 474.4 183.5 478 L 177.5 480 L 142.5 480 Q 133.6 478.4 130 471.5 L 128 462.5 Q 129.3 455.8 133.5 452 L 142.5 448 Z " /><path fill="rgb(0,0,0)" stroke="rgb(0,0,0)" stroke-width="1" opacity="1" d="M 238.5 448 L 273.5 448 Q 282.4 449.6 286 456.5 L 288 465.5 Q 286.4 474.4 279.5 478 L 273.5 480 L 238.5 480 Q 229.6 478.4 226 471.5 L 224 462.5 Q 225.3 455.8 229.5 452 L 238.5 448 Z " /><path fill="rgb(0,0,0)" stroke="rgb(0,0,0)" stroke-width="1" opacity="1" d="M 334.5 448 L 369.5 448 Q 378.4 449.6 382 456.5 L 384 465.5 Q 382.4 474.4 375.5 478 L 369.5 480 L 334.5 480 Q 325.6 478.4 322 471.5 L 320 462.5 Q 321.3 455.8 325.5 452 L 334.5 448 Z " /></svg>