<svg width="512" height="512" version="1.1" xmlns="http://www.w3.org/2000/svg" desc="Created with imagetracer.js version 0.2.1" ><path fill="rgb(0,0,0)" stroke="rgb(0,0,0)" stroke-width="1" opacity="0" d="M 0 0 L 512 0 L 512 512 L 0 512 L 0 0 Z M 152 112 L 151 113 L 141 113 L 130 115 L 107 122 Q 83 132 66 147 Q 47 163 34 186 L 22 214 L 16 244 L 16 269 L 21 296 Q 30 327 49 349 Q 65 368 88 381 Q 102 390 121 395 L 148 400 L 173 400 L 196 396 Q 223 388 243 374 L 243 373 L 222 350 L 205 320 L 195 289 L 194 278 L 193 277 L 193 268 L 192 267 L 193 236 L 198 212 L 202 200 Q 210 179 222 163 L 243 140 L 243 138 Q 224 125 199 117 L 179 113 L 152 112 Z M 340 112 L 339 113 L 321 115 L 304 120 Q 284 127 269 138 L 269 140 L 290 163 L 307 193 L 317 224 L 318 235 L 319 236 L 319 245 L 320 246 L 319 277 L 315 297 L 310 313 Q 302 333 290 350 L 269 373 L 269 374 Q 284 385 304 392 L 326 398 L 340 399 L 341 400 L 374 399 L 399 393 Q 425 383 445 367 Q 464 351 477 329 Q 486 314 491 296 L 496 269 L 496 244 L 491 217 Q 482 186 464 165 Q 442 137 407 122 Q 391 116 374 113 Q 367 115 366 112 L 340 112 Z M 256 149 Q 238 165 226 186 Q 218 199 213 217 L 208 244 L 208 269 Q 211 270 209 277 L 213 296 L 217 308 Q 227 333 244 352 L 257 363 Q 274 347 286 327 L 298 299 L 304 269 L 304 244 Q 301 242 303 236 L 299 217 L 295 205 Q 285 179 268 161 L 256 149 Z " /><path fill="rgb(0,0,0)" stroke="rgb(0,0,0)" stroke-width="1" opacity="0.792156862745098" d="M 151.5 112 L 169 112.5 L 151.5 113 L 151.5 112 Z " /><path fill="rgb(0,0,0)" stroke="rgb(0,0,0)" stroke-width="1" opacity="0.792156862745098" d="M 339.5 112 L 347 112.5 L 339.5 113 L 339.5 112 Z " /><path fill="rgb(0,0,0)" stroke="rgb(0,0,0)" stroke-width="1" opacity="0.792156862745098" d="M 358.5 112 L 366 112.5 L 358.5 113 L 358.5 112 Z " /><path fill="rgb(0,0,0)" stroke="rgb(0,0,0)" stroke-width="1" opacity="0.792156862745098" d="M 140.5 113 L 145 113.5 L 140.5 114 L 140.5 113 Z " /><path fill="rgb(0,0,0)" stroke="rgb(0,0,0)" stroke-width="1" opacity="0.792156862745098" d="M 175.5 113 L 179 113.5 L 175.5 114 L 175.5 113 Z " /><path fill="rgb(0,0,0)" stroke="rgb(0,0,0)" stroke-width="1" opacity="0.792156862745098" d="M 331.5 113 L 335 113.5 L 331.5 114 L 331.5 113 Z " /><path fill="rgb(0,0,0)" stroke="rgb(0,0,0)" stroke-width="1" opacity="0.792156862745098" d="M 370.5 113 L 374 113.5 L 370.5 114 L 370.5 113 Z " /><path fill="rgb(0,0,0)" stroke="rgb(0,0,0)" stroke-width="1" opacity="0.792156862745098" d="M 134.5 114 L 137 114.5 L 134.5 115 L 134.5 114 Z " /><path fill="rgb(0,0,0)" stroke="rgb(0,0,0)" stroke-width="1" opacity="0.792156862745098" d="M 325.5 114 L 328 114.5 L 325.5 115 L 325.5 114 Z " /><path fill="rgb(0,0,0)" stroke="rgb(0,0,0)" stroke-width="1" opacity="0.792156862745098" d="M 377.5 114 L 380 114.5 L 377.5 115 L 377.5 114 Z " /><path fill="rgb(0,0,0)" stroke="rgb(0,0,0)" stroke-width="1" opacity="0.792156862745098" d="M 188.5 115 L 191 115.5 L 188.5 116 L 188.5 115 Z " /><path fill="rgb(0,0,0)" stroke="rgb(0,0,0)" stroke-width="1" opacity="0.792156862745098" d="M 320.5 115 L 323 115.5 L 320.5 116 L 320.5 115 Z " /><path fill="rgb(0,0,0)" stroke="rgb(0,0,0)" stroke-width="1" opacity="0.792156862745098" d="M 285.5 128 L 284.5 130 L 285.5 128 Z " /><path fill="rgb(0,0,0)" stroke="rgb(0,0,0)" stroke-width="1" opacity="0.792156862745098" d="M 91.5 129 L 90.5 131 L 91.5 129 Z " /><path fill="rgb(0,0,0)" stroke="rgb(0,0,0)" stroke-width="1" opacity="0.792156862745098" d="M 233.5 132 L 234.5 134 L 233.5 132 Z " /><path fill="rgb(0,0,0)" stroke="rgb(0,0,0)" stroke-width="1" opacity="0.792156862745098" d="M 278.5 132 L 277.5 134 L 278.5 132 Z " /><path fill="rgb(0,0,0)" stroke="rgb(0,0,0)" stroke-width="1" opacity="0.792156862745098" d="M 426.5 132 L 427.5 134 L 426.5 132 Z " /><path fill="rgb(0,0,0)" stroke="rgb(0,0,0)" stroke-width="1" opacity="0.792156862745098" d="M 84.5 133 L 83.5 135 L 84.5 133 Z " /><path fill="rgb(0,0,0)" stroke="rgb(0,0,0)" stroke-width="1" opacity="0.792156862745098" d="M 236.5 134 L 237.5 136 L 236.5 134 Z " /><path fill="rgb(0,0,0)" stroke="rgb(0,0,0)" stroke-width="1" opacity="0.792156862745098" d="M 429.5 134 L 430.5 136 L 429.5 134 Z " /><path fill="rgb(0,0,0)" stroke="rgb(0,0,0)" stroke-width="1" opacity="0.792156862745098" d="M 81.5 135 L 80.5 137 L 81.5 135 Z " /><path fill="rgb(0,0,0)" stroke="rgb(0,0,0)" stroke-width="1" opacity="0.792156862745098" d="M 432.5 136 L 433.5 138 L 432.5 136 Z " /><path fill="rgb(0,0,0)" stroke="rgb(0,0,0)" stroke-width="1" opacity="0.792156862745098" d="M 78.5 137 L 77.5 139 L 78.5 137 Z " /><path fill="rgb(0,0,0)" stroke="rgb(0,0,0)" stroke-width="1" opacity="0.792156862745098" d="M 242.5 138 L 243 139.5 L 231 150.5 L 242.5 138 Z " /><path fill="rgb(0,0,0)" stroke="rgb(0,0,0)" stroke-width="1" opacity="0.792156862745098" d="M 269.5 138 L 281 150.5 L 269 139.5 L 269.5 138 Z " /><path fill="rgb(0,0,0)" stroke="rgb(0,0,0)" stroke-width="1" opacity="0.792156862745098" d="M 435.5 138 L 436.5 140 L 435.5 138 Z " /><path fill="rgb(0,0,0)" stroke="rgb(0,0,0)" stroke-width="1" opacity="0.792156862745098" d="M 74.5 140 L 73.5 142 L 74.5 140 Z " /><path fill="rgb(0,0,0)" stroke="rgb(0,0,0)" stroke-width="1" opacity="0.792156862745098" d="M 439.5 141 L 440.5 143 L 439.5 141 Z " /><path fill="rgb(0,0,0)" stroke="rgb(0,0,0)" stroke-width="1" opacity="0.792156862745098" d="M 70.5 143 L 68.5 146 L 70.5 143 Z " /><path fill="rgb(0,0,0)" stroke="rgb(0,0,0)" stroke-width="1" opacity="0.792156862745098" d="M 443.5 144 L 446.5 148 L 443.5 144 Z " /><path fill="rgb(0,0,0)" stroke="rgb(0,0,0)" stroke-width="1" opacity="0.792156862745098" d="M 65.5 147 L 51.5 162 L 65.5 147 Z " /><path fill="rgb(0,0,0)" stroke="rgb(0,0,0)" stroke-width="1" opacity="0.792156862745098" d="M 255.5 149 L 268 160.5 L 256.5 150 L 244.5 161 L 255.5 149 Z " /><path fill="rgb(0,0,0)" stroke="rgb(0,0,0)" stroke-width="1" opacity="0.792156862745098" d="M 229.5 153 L 226.5 157 L 229.5 153 Z " /><path fill="rgb(0,0,0)" stroke="rgb(0,0,0)" stroke-width="1" opacity="0.792156862745098" d="M 282.5 153 L 285.5 157 L 282.5 153 Z " /><path fill="rgb(0,0,0)" stroke="rgb(0,0,0)" stroke-width="1" opacity="0.792156862745098" d="M 224.5 159 L 223.5 161 L 224.5 159 Z " /><path fill="rgb(0,0,0)" stroke="rgb(0,0,0)" stroke-width="1" opacity="0.792156862745098" d="M 287.5 159 L 288.5 161 L 287.5 159 Z " /><path fill="rgb(0,0,0)" stroke="rgb(0,0,0)" stroke-width="1" opacity="0.792156862745098" d="M 459.5 160 L 463.5 165 L 459.5 160 Z " /><path fill="rgb(0,0,0)" stroke="rgb(0,0,0)" stroke-width="1" opacity="0.792156862745098" d="M 221.5 163 L 220.5 165 L 221.5 163 Z " /><path fill="rgb(0,0,0)" stroke="rgb(0,0,0)" stroke-width="1" opacity="0.792156862745098" d="M 290.5 163 L 291.5 165 L 290.5 163 Z " /><path fill="rgb(0,0,0)" stroke="rgb(0,0,0)" stroke-width="1" opacity="0.792156862745098" d="M 49.5 164 L 46.5 168 L 49.5 164 Z " /><path fill="rgb(0,0,0)" stroke="rgb(0,0,0)" stroke-width="1" opacity="0.792156862745098" d="M 241.5 164 L 239.5 167 L 241.5 164 Z " /><path fill="rgb(0,0,0)" stroke="rgb(0,0,0)" stroke-width="1" opacity="0.792156862745098" d="M 270.5 164 L 272.5 167 L 270.5 164 Z " /><path fill="rgb(0,0,0)" stroke="rgb(0,0,0)" stroke-width="1" opacity="0.792156862745098" d="M 219.5 166 L 218.5 168 L 219.5 166 Z " /><path fill="rgb(0,0,0)" stroke="rgb(0,0,0)" stroke-width="1" opacity="0.792156862745098" d="M 292.5 166 L 293.5 168 L 292.5 166 Z " /><path fill="rgb(0,0,0)" stroke="rgb(0,0,0)" stroke-width="1" opacity="0.792156862745098" d="M 465.5 167 L 466.5 169 L 465.5 167 Z " /><path fill="rgb(0,0,0)" stroke="rgb(0,0,0)" stroke-width="1" opacity="0.792156862745098" d="M 45.5 169 L 43.5 172 L 45.5 169 Z " /><path fill="rgb(0,0,0)" stroke="rgb(0,0,0)" stroke-width="1" opacity="0.792156862745098" d="M 217.5 169 L 216.5 171 L 217.5 169 Z " /><path fill="rgb(0,0,0)" stroke="rgb(0,0,0)" stroke-width="1" opacity="0.792156862745098" d="M 237.5 169 L 235.5 172 L 237.5 169 Z " /><path fill="rgb(0,0,0)" stroke="rgb(0,0,0)" stroke-width="1" opacity="0.792156862745098" d="M 274.5 169 L 276.5 172 L 274.5 169 Z " /><path fill="rgb(0,0,0)" stroke="rgb(0,0,0)" stroke-width="1" opacity="0.792156862745098" d="M 294.5 169 L 295.5 171 L 294.5 169 Z " /><path fill="rgb(0,0,0)" stroke="rgb(0,0,0)" stroke-width="1" opacity="0.792156862745098" d="M 468.5 171 L 469.5 173 L 468.5 171 Z " /><path fill="rgb(0,0,0)" stroke="rgb(0,0,0)" stroke-width="1" opacity="0.792156862745098" d="M 42.5 173 L 41.5 175 L 42.5 173 Z " /><path fill="rgb(0,0,0)" stroke="rgb(0,0,0)" stroke-width="1" opacity="0.792156862745098" d="M 234.5 173 L 233.5 175 L 234.5 173 Z " /><path fill="rgb(0,0,0)" stroke="rgb(0,0,0)" stroke-width="1" opacity="0.792156862745098" d="M 277.5 173 L 278.5 175 L 277.5 173 Z " /><path fill="rgb(0,0,0)" stroke="rgb(0,0,0)" stroke-width="1" opacity="0.792156862745098" d="M 214.5 174 L 213.5 176 L 214.5 174 Z " /><path fill="rgb(0,0,0)" stroke="rgb(0,0,0)" stroke-width="1" opacity="0.792156862745098" d="M 297.5 174 L 298.5 176 L 297.5 174 Z " /><path fill="rgb(0,0,0)" stroke="rgb(0,0,0)" stroke-width="1" opacity="0.792156862745098" d="M 470.5 174 L 471.5 176 L 470.5 174 Z " /><path fill="rgb(0,0,0)" stroke="rgb(0,0,0)" stroke-width="1" opacity="0.792156862745098" d="M 40.5 176 L 39.5 178 L 40.5 176 Z " /><path fill="rgb(0,0,0)" stroke="rgb(0,0,0)" stroke-width="1" opacity="0.792156862745098" d="M 232.5 176 L 231.5 178 L 232.5 176 Z " /><path fill="rgb(0,0,0)" stroke="rgb(0,0,0)" stroke-width="1" opacity="0.792156862745098" d="M 279.5 176 L 280.5 178 L 279.5 176 Z " /><path fill="rgb(0,0,0)" stroke="rgb(0,0,0)" stroke-width="1" opacity="0.792156862745098" d="M 472.5 177 L 473.5 179 L 472.5 177 Z " /><path fill="rgb(0,0,0)" stroke="rgb(0,0,0)" stroke-width="1" opacity="0.792156862745098" d="M 38.5 179 L 37.5 181 L 38.5 179 Z " /><path fill="rgb(0,0,0)" stroke="rgb(0,0,0)" stroke-width="1" opacity="0.792156862745098" d="M 230.5 179 L 229.5 181 L 230.5 179 Z " /><path fill="rgb(0,0,0)" stroke="rgb(0,0,0)" stroke-width="1" opacity="0.792156862745098" d="M 281.5 179 L 282.5 181 L 281.5 179 Z " /><path fill="rgb(0,0,0)" stroke="rgb(0,0,0)" stroke-width="1" opacity="0.792156862745098" d="M 474.5 180 L 475.5 182 L 474.5 180 Z " /><path fill="rgb(0,0,0)" stroke="rgb(0,0,0)" stroke-width="1" opacity="0.792156862745098" d="M 35.5 184 L 34.5 186 L 35.5 184 Z " /><path fill="rgb(0,0,0)" stroke="rgb(0,0,0)" stroke-width="1" opacity="0.792156862745098" d="M 227.5 184 L 226.5 186 L 227.5 184 Z " /><path fill="rgb(0,0,0)" stroke="rgb(0,0,0)" stroke-width="1" opacity="0.792156862745098" d="M 284.5 184 L 285.5 186 L 284.5 184 Z " /><path fill="rgb(0,0,0)" stroke="rgb(0,0,0)" stroke-width="1" opacity="0.792156862745098" d="M 19.5 224 L 20 226.5 L 19 226.5 L 19.5 224 Z " /><path fill="rgb(0,0,0)" stroke="rgb(0,0,0)" stroke-width="1" opacity="0.792156862745098" d="M 194.5 226 L 195 228.5 L 194 228.5 L 194.5 226 Z " /><path fill="rgb(0,0,0)" stroke="rgb(0,0,0)" stroke-width="1" opacity="0.792156862745098" d="M 317.5 226 L 318 228.5 L 317 228.5 L 317.5 226 Z " /><path fill="rgb(0,0,0)" stroke="rgb(0,0,0)" stroke-width="1" opacity="0.792156862745098" d="M 493.5 228 L 494 230.5 L 493 230.5 L 493.5 228 Z " /><path fill="rgb(0,0,0)" stroke="rgb(0,0,0)" stroke-width="1" opacity="0.792156862745098" d="M 18.5 229 L 19 231.5 L 18 231.5 L 18.5 229 Z " /><path fill="rgb(0,0,0)" stroke="rgb(0,0,0)" stroke-width="1" opacity="0.792156862745098" d="M 210.5 229 L 211 231.5 L 210 231.5 L 210.5 229 Z " /><path fill="rgb(0,0,0)" stroke="rgb(0,0,0)" stroke-width="1" opacity="0.792156862745098" d="M 301.5 229 L 302 231.5 L 301 231.5 L 301.5 229 Z " /><path fill="rgb(0,0,0)" stroke="rgb(0,0,0)" stroke-width="1" opacity="0.792156862745098" d="M 193.5 231 L 194 234.5 L 193 234.5 L 193.5 231 Z " /><path fill="rgb(0,0,0)" stroke="rgb(0,0,0)" stroke-width="1" opacity="0.792156862745098" d="M 318.5 232 L 319 234.5 L 318 234.5 L 318.5 232 Z " /><path fill="rgb(0,0,0)" stroke="rgb(0,0,0)" stroke-width="1" opacity="0.792156862745098" d="M 494.5 234 L 495 237.5 L 494 237.5 L 494.5 234 Z " /><path fill="rgb(0,0,0)" stroke="rgb(0,0,0)" stroke-width="1" opacity="0.792156862745098" d="M 17.5 235 L 18 238.5 L 17 238.5 L 17.5 235 Z " /><path fill="rgb(0,0,0)" stroke="rgb(0,0,0)" stroke-width="1" opacity="0.792156862745098" d="M 209.5 235 L 210 238.5 L 209 238.5 L 209.5 235 Z " /><path fill="rgb(0,0,0)" stroke="rgb(0,0,0)" stroke-width="1" opacity="0.792156862745098" d="M 302.5 235 L 303 238.5 L 302 238.5 L 302.5 235 Z " /><path fill="rgb(0,0,0)" stroke="rgb(0,0,0)" stroke-width="1" opacity="0.792156862745098" d="M 192.5 239 L 193 244.5 L 192 244.5 L 192.5 239 Z " /><path fill="rgb(0,0,0)" stroke="rgb(0,0,0)" stroke-width="1" opacity="0.792156862745098" d="M 319.5 239 L 320 244.5 L 319 244.5 L 319.5 239 Z " /><path fill="rgb(0,0,0)" stroke="rgb(0,0,0)" stroke-width="1" opacity="0.792156862745098" d="M 16.5 243 L 17 251.5 L 16 251.5 L 16.5 243 Z " /><path fill="rgb(0,0,0)" stroke="rgb(0,0,0)" stroke-width="1" opacity="0.792156862745098" d="M 208.5 243 L 209 251.5 L 208 251.5 L 208.5 243 Z " /><path fill="rgb(0,0,0)" stroke="rgb(0,0,0)" stroke-width="1" opacity="0.792156862745098" d="M 303.5 243 L 304 251.5 L 303 251.5 L 303.5 243 Z " /><path fill="rgb(0,0,0)" stroke="rgb(0,0,0)" stroke-width="1" opacity="0.792156862745098" d="M 495.5 243 L 496 249.5 L 495 249.5 L 495.5 243 Z " /><path fill="rgb(0,0,0)" stroke="rgb(0,0,0)" stroke-width="1" opacity="0.792156862745098" d="M 208.5 260 L 209 268.5 L 208 268.5 L 208.5 260 Z " /><path fill="rgb(0,0,0)" stroke="rgb(0,0,0)" stroke-width="1" opacity="0.792156862745098" d="M 303.5 260 L 304 268.5 L 303 268.5 L 303.5 260 Z " /><path fill="rgb(0,0,0)" stroke="rgb(0,0,0)" stroke-width="1" opacity="0.792156862745098" d="M 16.5 261 L 17 268.5 L 16 268.5 L 16.5 261 Z " /><path fill="rgb(0,0,0)" stroke="rgb(0,0,0)" stroke-width="1" opacity="0.792156862745098" d="M 495.5 262 L 496 268.5 L 495 268.5 L 495.5 262 Z " /><path fill="rgb(0,0,0)" stroke="rgb(0,0,0)" stroke-width="1" opacity="0.792156862745098" d="M 192.5 267 L 193 272.5 L 192 272.5 L 192.5 267 Z " /><path fill="rgb(0,0,0)" stroke="rgb(0,0,0)" stroke-width="1" opacity="0.792156862745098" d="M 319.5 267 L 320 272.5 L 319 272.5 L 319.5 267 Z " /><path fill="rgb(0,0,0)" stroke="rgb(0,0,0)" stroke-width="1" opacity="0.792156862745098" d="M 209.5 273 L 210 276.5 L 209 276.5 L 209.5 273 Z " /><path fill="rgb(0,0,0)" stroke="rgb(0,0,0)" stroke-width="1" opacity="0.792156862745098" d="M 302.5 273 L 303 276.5 L 302 276.5 L 302.5 273 Z " /><path fill="rgb(0,0,0)" stroke="rgb(0,0,0)" stroke-width="1" opacity="0.792156862745098" d="M 17.5 274 L 18 276.5 L 17 276.5 L 17.5 274 Z " /><path fill="rgb(0,0,0)" stroke="rgb(0,0,0)" stroke-width="1" opacity="0.792156862745098" d="M 494.5 274 L 495 277.5 L 494 277.5 L 494.5 274 Z " /><path fill="rgb(0,0,0)" stroke="rgb(0,0,0)" stroke-width="1" opacity="0.792156862745098" d="M 193.5 277 L 194 279.5 L 193 279.5 L 193.5 277 Z " /><path fill="rgb(0,0,0)" stroke="rgb(0,0,0)" stroke-width="1" opacity="0.792156862745098" d="M 318.5 277 L 319 279.5 L 318 279.5 L 318.5 277 Z " /><path fill="rgb(0,0,0)" stroke="rgb(0,0,0)" stroke-width="1" opacity="0.792156862745098" d="M 18.5 280 L 19 282.5 L 18 282.5 L 18.5 280 Z " /><path fill="rgb(0,0,0)" stroke="rgb(0,0,0)" stroke-width="1" opacity="0.792156862745098" d="M 210.5 280 L 211 282.5 L 210 282.5 L 210.5 280 Z " /><path fill="rgb(0,0,0)" stroke="rgb(0,0,0)" stroke-width="1" opacity="0.792156862745098" d="M 301.5 280 L 302 282.5 L 301 282.5 L 301.5 280 Z " /><path fill="rgb(0,0,0)" stroke="rgb(0,0,0)" stroke-width="1" opacity="0.792156862745098" d="M 194.5 283 L 195 285.5 L 194 285.5 L 194.5 283 Z " /><path fill="rgb(0,0,0)" stroke="rgb(0,0,0)" stroke-width="1" opacity="0.792156862745098" d="M 317.5 283 L 318 285.5 L 317 285.5 L 317.5 283 Z " /><path fill="rgb(0,0,0)" stroke="rgb(0,0,0)" stroke-width="1" opacity="0.792156862745098" d="M 226.5 326 L 227.5 328 L 226.5 326 Z " /><path fill="rgb(0,0,0)" stroke="rgb(0,0,0)" stroke-width="1" opacity="0.792156862745098" d="M 285.5 326 L 284.5 328 L 285.5 326 Z " /><path fill="rgb(0,0,0)" stroke="rgb(0,0,0)" stroke-width="1" opacity="0.792156862745098" d="M 35.5 328 L 36.5 330 L 35.5 328 Z " /><path fill="rgb(0,0,0)" stroke="rgb(0,0,0)" stroke-width="1" opacity="0.792156862745098" d="M 229.5 331 L 230.5 333 L 229.5 331 Z " /><path fill="rgb(0,0,0)" stroke="rgb(0,0,0)" stroke-width="1" opacity="0.792156862745098" d="M 282.5 331 L 281.5 333 L 282.5 331 Z " /><path fill="rgb(0,0,0)" stroke="rgb(0,0,0)" stroke-width="1" opacity="0.792156862745098" d="M 38.5 333 L 39.5 335 L 38.5 333 Z " /><path fill="rgb(0,0,0)" stroke="rgb(0,0,0)" stroke-width="1" opacity="0.792156862745098" d="M 473.5 333 L 472.5 335 L 473.5 333 Z " /><path fill="rgb(0,0,0)" stroke="rgb(0,0,0)" stroke-width="1" opacity="0.792156862745098" d="M 231.5 334 L 232.5 336 L 231.5 334 Z " /><path fill="rgb(0,0,0)" stroke="rgb(0,0,0)" stroke-width="1" opacity="0.792156862745098" d="M 280.5 334 L 279.5 336 L 280.5 334 Z " /><path fill="rgb(0,0,0)" stroke="rgb(0,0,0)" stroke-width="1" opacity="0.792156862745098" d="M 213.5 336 L 214.5 338 L 213.5 336 Z " /><path fill="rgb(0,0,0)" stroke="rgb(0,0,0)" stroke-width="1" opacity="0.792156862745098" d="M 298.5 336 L 297.5 338 L 298.5 336 Z " /><path fill="rgb(0,0,0)" stroke="rgb(0,0,0)" stroke-width="1" opacity="0.792156862745098" d="M 471.5 336 L 470.5 338 L 471.5 336 Z " /><path fill="rgb(0,0,0)" stroke="rgb(0,0,0)" stroke-width="1" opacity="0.792156862745098" d="M 233.5 337 L 234.5 339 L 233.5 337 Z " /><path fill="rgb(0,0,0)" stroke="rgb(0,0,0)" stroke-width="1" opacity="0.792156862745098" d="M 278.5 337 L 277.5 339 L 278.5 337 Z " /><path fill="rgb(0,0,0)" stroke="rgb(0,0,0)" stroke-width="1" opacity="0.792156862745098" d="M 469.5 339 L 468.5 341 L 469.5 339 Z " /><path fill="rgb(0,0,0)" stroke="rgb(0,0,0)" stroke-width="1" opacity="0.792156862745098" d="M 43.5 340 L 44.5 342 L 43.5 340 Z " /><path fill="rgb(0,0,0)" stroke="rgb(0,0,0)" stroke-width="1" opacity="0.792156862745098" d="M 235.5 340 L 237.5 343 L 235.5 340 Z " /><path fill="rgb(0,0,0)" stroke="rgb(0,0,0)" stroke-width="1" opacity="0.792156862745098" d="M 276.5 340 L 274.5 343 L 276.5 340 Z " /><path fill="rgb(0,0,0)" stroke="rgb(0,0,0)" stroke-width="1" opacity="0.792156862745098" d="M 216.5 341 L 217.5 343 L 216.5 341 Z " /><path fill="rgb(0,0,0)" stroke="rgb(0,0,0)" stroke-width="1" opacity="0.792156862745098" d="M 295.5 341 L 294.5 343 L 295.5 341 Z " /><path fill="rgb(0,0,0)" stroke="rgb(0,0,0)" stroke-width="1" opacity="0.792156862745098" d="M 466.5 343 L 465.5 345 L 466.5 343 Z " /><path fill="rgb(0,0,0)" stroke="rgb(0,0,0)" stroke-width="1" opacity="0.792156862745098" d="M 46.5 344 L 47.5 346 L 46.5 344 Z " /><path fill="rgb(0,0,0)" stroke="rgb(0,0,0)" stroke-width="1" opacity="0.792156862745098" d="M 218.5 344 L 219.5 346 L 218.5 344 Z " /><path fill="rgb(0,0,0)" stroke="rgb(0,0,0)" stroke-width="1" opacity="0.792156862745098" d="M 293.5 344 L 292.5 346 L 293.5 344 Z " /><path fill="rgb(0,0,0)" stroke="rgb(0,0,0)" stroke-width="1" opacity="0.792156862745098" d="M 239.5 345 L 241.5 348 L 239.5 345 Z " /><path fill="rgb(0,0,0)" stroke="rgb(0,0,0)" stroke-width="1" opacity="0.792156862745098" d="M 272.5 345 L 270.5 348 L 272.5 345 Z " /><path fill="rgb(0,0,0)" stroke="rgb(0,0,0)" stroke-width="1" opacity="0.792156862745098" d="M 220.5 347 L 221.5 349 L 220.5 347 Z " /><path fill="rgb(0,0,0)" stroke="rgb(0,0,0)" stroke-width="1" opacity="0.792156862745098" d="M 291.5 347 L 290.5 349 L 291.5 347 Z " /><path fill="rgb(0,0,0)" stroke="rgb(0,0,0)" stroke-width="1" opacity="0.792156862745098" d="M 49.5 348 L 54.5 354 L 49.5 348 Z " /><path fill="rgb(0,0,0)" stroke="rgb(0,0,0)" stroke-width="1" opacity="0.792156862745098" d="M 462.5 348 L 459.5 352 L 462.5 348 Z " /><path fill="rgb(0,0,0)" stroke="rgb(0,0,0)" stroke-width="1" opacity="0.792156862745098" d="M 223.5 351 L 224.5 353 L 223.5 351 Z " /><path fill="rgb(0,0,0)" stroke="rgb(0,0,0)" stroke-width="1" opacity="0.792156862745098" d="M 244.5 351 L 256.5 362 L 268 351.5 L 255.5 363 L 244.5 351 Z " /><path fill="rgb(0,0,0)" stroke="rgb(0,0,0)" stroke-width="1" opacity="0.792156862745098" d="M 288.5 351 L 287.5 353 L 288.5 351 Z " /><path fill="rgb(0,0,0)" stroke="rgb(0,0,0)" stroke-width="1" opacity="0.792156862745098" d="M 226.5 355 L 229.5 359 L 226.5 355 Z " /><path fill="rgb(0,0,0)" stroke="rgb(0,0,0)" stroke-width="1" opacity="0.792156862745098" d="M 285.5 355 L 282.5 359 L 285.5 355 Z " /><path fill="rgb(0,0,0)" stroke="rgb(0,0,0)" stroke-width="1" opacity="0.792156862745098" d="M 62.5 361 L 67.5 367 L 62.5 361 Z " /><path fill="rgb(0,0,0)" stroke="rgb(0,0,0)" stroke-width="1" opacity="0.792156862745098" d="M 231.5 361 L 243 373.5 L 242 373.5 L 231.5 361 Z " /><path fill="rgb(0,0,0)" stroke="rgb(0,0,0)" stroke-width="1" opacity="0.792156862745098" d="M 280.5 361 L 270 372.5 L 269.5 374 L 269 372.5 L 280.5 361 Z " /><path fill="rgb(0,0,0)" stroke="rgb(0,0,0)" stroke-width="1" opacity="0.792156862745098" d="M 447.5 363 L 444.5 367 L 447.5 363 Z " /><path fill="rgb(0,0,0)" stroke="rgb(0,0,0)" stroke-width="1" opacity="0.792156862745098" d="M 70.5 368 L 71.5 370 L 70.5 368 Z " /><path fill="rgb(0,0,0)" stroke="rgb(0,0,0)" stroke-width="1" opacity="0.792156862745098" d="M 441.5 368 L 439.5 371 L 441.5 368 Z " /><path fill="rgb(0,0,0)" stroke="rgb(0,0,0)" stroke-width="1" opacity="0.792156862745098" d="M 74.5 371 L 75.5 373 L 74.5 371 Z " /><path fill="rgb(0,0,0)" stroke="rgb(0,0,0)" stroke-width="1" opacity="0.792156862745098" d="M 436.5 372 L 435.5 374 L 436.5 372 Z " /><path fill="rgb(0,0,0)" stroke="rgb(0,0,0)" stroke-width="1" opacity="0.792156862745098" d="M 78.5 374 L 79.5 376 L 78.5 374 Z " /><path fill="rgb(0,0,0)" stroke="rgb(0,0,0)" stroke-width="1" opacity="0.792156862745098" d="M 433.5 374 L 432.5 376 L 433.5 374 Z " /><path fill="rgb(0,0,0)" stroke="rgb(0,0,0)" stroke-width="1" opacity="0.792156862745098" d="M 430.5 376 L 429.5 378 L 430.5 376 Z " /><path fill="rgb(0,0,0)" stroke="rgb(0,0,0)" stroke-width="1" opacity="0.792156862745098" d="M 234.5 378 L 233.5 380 L 234.5 378 Z " /><path fill="rgb(0,0,0)" stroke="rgb(0,0,0)" stroke-width="1" opacity="0.792156862745098" d="M 277.5 378 L 278.5 380 L 277.5 378 Z " /><path fill="rgb(0,0,0)" stroke="rgb(0,0,0)" stroke-width="1" opacity="0.792156862745098" d="M 86.5 379 L 87.5 381 L 86.5 379 Z " /><path fill="rgb(0,0,0)" stroke="rgb(0,0,0)" stroke-width="1" opacity="0.792156862745098" d="M 229.5 381 L 228.5 383 L 226.5 384 L 227.5 382 L 229.5 381 Z " /><path fill="rgb(0,0,0)" stroke="rgb(0,0,0)" stroke-width="1" opacity="0.792156862745098" d="M 284.5 382 L 285.5 384 L 284.5 382 Z " /><path fill="rgb(0,0,0)" stroke="rgb(0,0,0)" stroke-width="1" opacity="0.792156862745098" d="M 189.5 396 L 192 396.5 L 189.5 397 L 189.5 396 Z " /><path fill="rgb(0,0,0)" stroke="rgb(0,0,0)" stroke-width="1" opacity="0.792156862745098" d="M 133.5 397 L 136 397.5 L 133.5 398 L 133.5 397 Z " /><path fill="rgb(0,0,0)" stroke="rgb(0,0,0)" stroke-width="1" opacity="0.792156862745098" d="M 184.5 397 L 187 397.5 L 184.5 398 L 184.5 397 Z " /><path fill="rgb(0,0,0)" stroke="rgb(0,0,0)" stroke-width="1" opacity="0.792156862745098" d="M 325.5 397 L 328 397.5 L 325.5 398 L 325.5 397 Z " /><path fill="rgb(0,0,0)" stroke="rgb(0,0,0)" stroke-width="1" opacity="0.792156862745098" d="M 377.5 397 L 380 397.5 L 377.5 398 L 377.5 397 Z " /><path fill="rgb(0,0,0)" stroke="rgb(0,0,0)" stroke-width="1" opacity="0.792156862745098" d="M 139.5 398 L 142 398.5 L 139.5 399 L 139.5 398 Z " /><path fill="rgb(0,0,0)" stroke="rgb(0,0,0)" stroke-width="1" opacity="0.792156862745098" d="M 177.5 398 L 181 398.5 L 177.5 399 L 177.5 398 Z " /><path fill="rgb(0,0,0)" stroke="rgb(0,0,0)" stroke-width="1" opacity="0.792156862745098" d="M 331.5 398 L 335 398.5 L 331.5 399 L 331.5 398 Z " /><path fill="rgb(0,0,0)" stroke="rgb(0,0,0)" stroke-width="1" opacity="0.792156862745098" d="M 370.5 398 L 374 398.5 L 370.5 399 L 370.5 398 Z " /><path fill="rgb(0,0,0)" stroke="rgb(0,0,0)" stroke-width="1" opacity="0.792156862745098" d="M 147.5 399 L 157 399.5 L 147.5 400 L 147.5 399 Z " /><path fill="rgb(0,0,0)" stroke="rgb(0,0,0)" stroke-width="1" opacity="0.792156862745098" d="M 165.5 399 L 173 399.5 L 165.5 400 L 165.5 399 Z " /><path fill="rgb(0,0,0)" stroke="rgb(0,0,0)" stroke-width="1" opacity="0.792156862745098" d="M 340.5 399 L 348 399.5 L 340.5 400 L 340.5 399 Z " /><path fill="rgb(0,0,0)" stroke="rgb(0,0,0)" stroke-width="1" opacity="0.792156862745098" d="M 357.5 399 L 365 399.5 L 357.5 400 L 357.5 399 Z " /><path fill="rgb(0,0,0)" stroke="rgb(0,0,0)" stroke-width="1" opacity="1" d="M 347.5 112 L 376.5 114 L 393.5 118 L 407.5 123 Q 438.3 136.2 459 159.5 Q 476.8 178.7 487 205.5 L 494 231.5 L 496 261.5 L 495 262.5 L 495 273.5 L 494 274.5 L 493 285.5 L 485 311.5 Q 471.8 342.3 448.5 363 Q 429.3 380.8 402.5 391 L 376.5 398 L 348.5 400 L 347.5 399 L 328.5 398 L 302.5 391 Q 284.1 384.4 270 373.5 Q 295.6 349.1 310 313.5 L 317 290.5 L 319 273.5 L 320 272.5 L 320 239.5 L 315 213.5 L 308 193.5 Q 293.8 161.2 270 138.5 Q 283.1 128.6 299.5 122 L 318.5 116 L 335.5 113 L 346.5 113 L 347.5 112 Z " /><path fill="rgb(0,0,0)" stroke="rgb(0,0,0)" stroke-width="1" opacity="1" d="M 145.5 113 L 174.5 113 L 196.5 117 Q 223 124 242 138.5 Q 216.4 162.9 202 198.5 L 197 213.5 L 193 231.5 Q 194.8 237.8 192 239.5 L 192 272.5 L 197 298.5 L 204 318.5 Q 218.2 350.8 242 373.5 Q 223.3 387.8 197.5 395 L 176.5 399 L 157.5 400 L 156.5 399 L 142.5 399 L 141.5 398 L 130.5 397 L 102.5 388 Q 74.5 375.5 55 354.5 Q 37.7 336.3 27 311.5 L 19 285.5 L 19 280.5 L 17 273.5 L 16 252.5 L 17 251.5 L 17 239.5 L 20 222.5 L 29 196.5 Q 43.3 166.3 67.5 146 Q 83.9 131.9 105.5 123 L 119.5 118 L 145.5 113 Z " /><path fill="rgb(0,0,0)" stroke="rgb(0,0,0)" stroke-width="1" opacity="1" d="M 255.5 150 L 270 163.5 Q 287.4 183.6 297 211.5 L 302 232.5 L 304 259.5 L 303 260.5 L 303 272.5 L 302 273.5 L 301 285.5 L 292 313.5 Q 278.9 342.4 256.5 362 L 242 348.5 Q 224.6 328.4 215 300.5 L 210 279.5 L 208 252.5 L 209 251.5 L 209 239.5 L 210 238.5 L 211 226.5 L 220 198.5 Q 233.1 169.6 255.5 150 Z " /></svg>