<svg width="512" height="512" version="1.1" xmlns="http://www.w3.org/2000/svg" desc="Created with imagetracer.js version 0.2.1" ><path fill="rgb(0,0,0)" stroke="rgb(0,0,0)" stroke-width="1" opacity="0" d="M 0 0 L 512 0 L 512 512 L 0 512 L 0 0 Z M 79 64 Q 66 66 58 73 Q 44 83 40 103 L 41 121 L 49 137 L 200 303 L 200 460 L 202 465 Q 205 470 213 472 Q 221 473 225 470 L 304 407 Q 310 403 312 396 L 312 303 L 463 137 Q 470 128 472 116 Q 474 92 463 82 Q 453 68 434 64 L 79 64 Z " /><path fill="rgb(0,0,0)" stroke="rgb(0,0,0)" stroke-width="1" opacity="0" d="M 82.5 96 L 429.5 96 L 436 99 Q 439.2 102.6 440 109.5 Q 438.7 116.7 434 120.5 L 282 287.5 L 280 292.5 L 280 383.5 L 275.5 388 L 232.5 422 L 232 292.5 L 231 289.5 L 75 117.5 Q 71.2 114.3 72 106.5 Q 73.3 100.8 77.5 98 L 82.5 96 Z " /><path fill="rgb(0,0,0)" stroke="rgb(0,0,0)" stroke-width="1" opacity="0.8117647058823529" d="M 78.5 64 L 82 64.5 L 78.5 65 L 78.5 64 Z " /><path fill="rgb(0,0,0)" stroke="rgb(0,0,0)" stroke-width="1" opacity="0.8117647058823529" d="M 430.5 64 L 434 64.5 L 430.5 65 L 430.5 64 Z " /><path fill="rgb(0,0,0)" stroke="rgb(0,0,0)" stroke-width="1" opacity="0.8117647058823529" d="M 450.5 70 L 451.5 72 L 450.5 70 Z " /><path fill="rgb(0,0,0)" stroke="rgb(0,0,0)" stroke-width="1" opacity="0.8117647058823529" d="M 57.5 73 L 55.5 76 L 57.5 73 Z " /><path fill="rgb(0,0,0)" stroke="rgb(0,0,0)" stroke-width="1" opacity="0.8117647058823529" d="M 454.5 73 L 456.5 76 L 454.5 73 Z " /><path fill="rgb(0,0,0)" stroke="rgb(0,0,0)" stroke-width="1" opacity="0.8117647058823529" d="M 51.5 79 L 49.5 82 L 51.5 79 Z " /><path fill="rgb(0,0,0)" stroke="rgb(0,0,0)" stroke-width="1" opacity="0.8117647058823529" d="M 460.5 79 L 462.5 82 L 460.5 79 Z " /><path fill="rgb(0,0,0)" stroke="rgb(0,0,0)" stroke-width="1" opacity="0.8117647058823529" d="M 46.5 86 L 45.5 88 L 46.5 86 Z " /><path fill="rgb(0,0,0)" stroke="rgb(0,0,0)" stroke-width="1" opacity="0.8117647058823529" d="M 433.5 97 L 434.5 99 L 433.5 97 Z " /><path fill="rgb(0,0,0)" stroke="rgb(0,0,0)" stroke-width="1" opacity="0.8117647058823529" d="M 436.5 100 L 437.5 102 L 436.5 100 Z " /><path fill="rgb(0,0,0)" stroke="rgb(0,0,0)" stroke-width="1" opacity="0.8117647058823529" d="M 40.5 102 L 41 106.5 L 40 106.5 L 40.5 102 Z " /><path fill="rgb(0,0,0)" stroke="rgb(0,0,0)" stroke-width="1" opacity="0.8117647058823529" d="M 471.5 102 L 472 106.5 L 471 106.5 L 471.5 102 Z " /><path fill="rgb(0,0,0)" stroke="rgb(0,0,0)" stroke-width="1" opacity="0.8117647058823529" d="M 439.5 105 L 440 107.5 L 439 107.5 L 439.5 105 Z " /><path fill="rgb(0,0,0)" stroke="rgb(0,0,0)" stroke-width="1" opacity="0.8117647058823529" d="M 439.5 110 L 440 112.5 L 439 112.5 L 439.5 110 Z " /><path fill="rgb(0,0,0)" stroke="rgb(0,0,0)" stroke-width="1" opacity="0.8117647058823529" d="M 40.5 111 L 41 115.5 L 40 115.5 L 40.5 111 Z " /><path fill="rgb(0,0,0)" stroke="rgb(0,0,0)" stroke-width="1" opacity="0.8117647058823529" d="M 471.5 111 L 472 115.5 L 471 115.5 L 471.5 111 Z " /><path fill="rgb(0,0,0)" stroke="rgb(0,0,0)" stroke-width="1" opacity="0.8117647058823529" d="M 73.5 115 L 74.5 117 L 73.5 115 Z " /><path fill="rgb(0,0,0)" stroke="rgb(0,0,0)" stroke-width="1" opacity="0.8117647058823529" d="M 437.5 116 L 434.5 120 L 437.5 116 Z " /><path fill="rgb(0,0,0)" stroke="rgb(0,0,0)" stroke-width="1" opacity="0.8117647058823529" d="M 41.5 118 L 42 120.5 L 41 120.5 L 41.5 118 Z " /><path fill="rgb(0,0,0)" stroke="rgb(0,0,0)" stroke-width="1" opacity="0.8117647058823529" d="M 78.5 121 L 84.5 128 L 78.5 121 Z " /><path fill="rgb(0,0,0)" stroke="rgb(0,0,0)" stroke-width="1" opacity="0.8117647058823529" d="M 430.5 124 L 424.5 131 L 430.5 124 Z " /><path fill="rgb(0,0,0)" stroke="rgb(0,0,0)" stroke-width="1" opacity="0.8117647058823529" d="M 44.5 127 L 46 129.5 L 44 128.5 L 44.5 127 Z " /><path fill="rgb(0,0,0)" stroke="rgb(0,0,0)" stroke-width="1" opacity="0.8117647058823529" d="M 467.5 127 L 468 128.5 L 466 129.5 L 467.5 127 Z " /><path fill="rgb(0,0,0)" stroke="rgb(0,0,0)" stroke-width="1" opacity="0.8117647058823529" d="M 88.5 132 L 94.5 139 L 88.5 132 Z " /><path fill="rgb(0,0,0)" stroke="rgb(0,0,0)" stroke-width="1" opacity="0.8117647058823529" d="M 47.5 133 L 48.5 135 L 47.5 133 Z " /><path fill="rgb(0,0,0)" stroke="rgb(0,0,0)" stroke-width="1" opacity="0.8117647058823529" d="M 464.5 133 L 463.5 135 L 464.5 133 Z " /><path fill="rgb(0,0,0)" stroke="rgb(0,0,0)" stroke-width="1" opacity="0.8117647058823529" d="M 420.5 135 L 414.5 142 L 420.5 135 Z " /><path fill="rgb(0,0,0)" stroke="rgb(0,0,0)" stroke-width="1" opacity="0.8117647058823529" d="M 49.5 136 L 53.5 141 L 49.5 136 Z " /><path fill="rgb(0,0,0)" stroke="rgb(0,0,0)" stroke-width="1" opacity="0.8117647058823529" d="M 462.5 136 L 458.5 141 L 462.5 136 Z " /><path fill="rgb(0,0,0)" stroke="rgb(0,0,0)" stroke-width="1" opacity="0.8117647058823529" d="M 98.5 143 L 103.5 149 L 98.5 143 Z " /><path fill="rgb(0,0,0)" stroke="rgb(0,0,0)" stroke-width="1" opacity="0.8117647058823529" d="M 57.5 145 L 63.5 152 L 57.5 145 Z " /><path fill="rgb(0,0,0)" stroke="rgb(0,0,0)" stroke-width="1" opacity="0.8117647058823529" d="M 411.5 145 L 405.5 152 L 411.5 145 Z " /><path fill="rgb(0,0,0)" stroke="rgb(0,0,0)" stroke-width="1" opacity="0.8117647058823529" d="M 454.5 145 L 448.5 152 L 454.5 145 Z " /><path fill="rgb(0,0,0)" stroke="rgb(0,0,0)" stroke-width="1" opacity="0.8117647058823529" d="M 107.5 153 L 113.5 160 L 107.5 153 Z " /><path fill="rgb(0,0,0)" stroke="rgb(0,0,0)" stroke-width="1" opacity="0.8117647058823529" d="M 67.5 156 L 73.5 163 L 67.5 156 Z " /><path fill="rgb(0,0,0)" stroke="rgb(0,0,0)" stroke-width="1" opacity="0.8117647058823529" d="M 401.5 156 L 395.5 163 L 401.5 156 Z " /><path fill="rgb(0,0,0)" stroke="rgb(0,0,0)" stroke-width="1" opacity="0.8117647058823529" d="M 444.5 156 L 438.5 163 L 444.5 156 Z " /><path fill="rgb(0,0,0)" stroke="rgb(0,0,0)" stroke-width="1" opacity="0.8117647058823529" d="M 117.5 164 L 123.5 171 L 117.5 164 Z " /><path fill="rgb(0,0,0)" stroke="rgb(0,0,0)" stroke-width="1" opacity="0.8117647058823529" d="M 77.5 167 L 83.5 174 L 77.5 167 Z " /><path fill="rgb(0,0,0)" stroke="rgb(0,0,0)" stroke-width="1" opacity="0.8117647058823529" d="M 391.5 167 L 385.5 174 L 391.5 167 Z " /><path fill="rgb(0,0,0)" stroke="rgb(0,0,0)" stroke-width="1" opacity="0.8117647058823529" d="M 434.5 167 L 428.5 174 L 434.5 167 Z " /><path fill="rgb(0,0,0)" stroke="rgb(0,0,0)" stroke-width="1" opacity="0.8117647058823529" d="M 127.5 175 L 133.5 182 L 127.5 175 Z " /><path fill="rgb(0,0,0)" stroke="rgb(0,0,0)" stroke-width="1" opacity="0.8117647058823529" d="M 87.5 178 L 93.5 185 L 87.5 178 Z " /><path fill="rgb(0,0,0)" stroke="rgb(0,0,0)" stroke-width="1" opacity="0.8117647058823529" d="M 381.5 178 L 375.5 185 L 381.5 178 Z " /><path fill="rgb(0,0,0)" stroke="rgb(0,0,0)" stroke-width="1" opacity="0.8117647058823529" d="M 424.5 178 L 418.5 185 L 424.5 178 Z " /><path fill="rgb(0,0,0)" stroke="rgb(0,0,0)" stroke-width="1" opacity="0.8117647058823529" d="M 137.5 186 L 143.5 193 L 137.5 186 Z " /><path fill="rgb(0,0,0)" stroke="rgb(0,0,0)" stroke-width="1" opacity="0.8117647058823529" d="M 97.5 189 L 103.5 196 L 97.5 189 Z " /><path fill="rgb(0,0,0)" stroke="rgb(0,0,0)" stroke-width="1" opacity="0.8117647058823529" d="M 371.5 189 L 365.5 196 L 371.5 189 Z " /><path fill="rgb(0,0,0)" stroke="rgb(0,0,0)" stroke-width="1" opacity="0.8117647058823529" d="M 414.5 189 L 408.5 196 L 414.5 189 Z " /><path fill="rgb(0,0,0)" stroke="rgb(0,0,0)" stroke-width="1" opacity="0.8117647058823529" d="M 147.5 197 L 153.5 204 L 147.5 197 Z " /><path fill="rgb(0,0,0)" stroke="rgb(0,0,0)" stroke-width="1" opacity="0.8117647058823529" d="M 107.5 200 L 113.5 207 L 107.5 200 Z " /><path fill="rgb(0,0,0)" stroke="rgb(0,0,0)" stroke-width="1" opacity="0.8117647058823529" d="M 361.5 200 L 356.5 206 L 361.5 200 Z " /><path fill="rgb(0,0,0)" stroke="rgb(0,0,0)" stroke-width="1" opacity="0.8117647058823529" d="M 404.5 200 L 398.5 207 L 404.5 200 Z " /><path fill="rgb(0,0,0)" stroke="rgb(0,0,0)" stroke-width="1" opacity="0.8117647058823529" d="M 156.5 207 L 162.5 214 L 156.5 207 Z " /><path fill="rgb(0,0,0)" stroke="rgb(0,0,0)" stroke-width="1" opacity="0.8117647058823529" d="M 352.5 210 L 346.5 217 L 352.5 210 Z " /><path fill="rgb(0,0,0)" stroke="rgb(0,0,0)" stroke-width="1" opacity="0.8117647058823529" d="M 117.5 211 L 123.5 218 L 117.5 211 Z " /><path fill="rgb(0,0,0)" stroke="rgb(0,0,0)" stroke-width="1" opacity="0.8117647058823529" d="M 394.5 211 L 388.5 218 L 394.5 211 Z " /><path fill="rgb(0,0,0)" stroke="rgb(0,0,0)" stroke-width="1" opacity="0.8117647058823529" d="M 166.5 218 L 172.5 225 L 166.5 218 Z " /><path fill="rgb(0,0,0)" stroke="rgb(0,0,0)" stroke-width="1" opacity="0.8117647058823529" d="M 342.5 221 L 336.5 228 L 342.5 221 Z " /><path fill="rgb(0,0,0)" stroke="rgb(0,0,0)" stroke-width="1" opacity="0.8117647058823529" d="M 127.5 222 L 133.5 229 L 127.5 222 Z " /><path fill="rgb(0,0,0)" stroke="rgb(0,0,0)" stroke-width="1" opacity="0.8117647058823529" d="M 384.5 222 L 378.5 229 L 384.5 222 Z " /><path fill="rgb(0,0,0)" stroke="rgb(0,0,0)" stroke-width="1" opacity="0.8117647058823529" d="M 176.5 229 L 182.5 236 L 176.5 229 Z " /><path fill="rgb(0,0,0)" stroke="rgb(0,0,0)" stroke-width="1" opacity="0.8117647058823529" d="M 332.5 232 L 326.5 239 L 332.5 232 Z " /><path fill="rgb(0,0,0)" stroke="rgb(0,0,0)" stroke-width="1" opacity="0.8117647058823529" d="M 137.5 233 L 143.5 240 L 137.5 233 Z " /><path fill="rgb(0,0,0)" stroke="rgb(0,0,0)" stroke-width="1" opacity="0.8117647058823529" d="M 374.5 233 L 368.5 240 L 374.5 233 Z " /><path fill="rgb(0,0,0)" stroke="rgb(0,0,0)" stroke-width="1" opacity="0.8117647058823529" d="M 186.5 240 L 192.5 247 L 186.5 240 Z " /><path fill="rgb(0,0,0)" stroke="rgb(0,0,0)" stroke-width="1" opacity="0.8117647058823529" d="M 322.5 243 L 316.5 250 L 322.5 243 Z " /><path fill="rgb(0,0,0)" stroke="rgb(0,0,0)" stroke-width="1" opacity="0.8117647058823529" d="M 147.5 244 L 153.5 251 L 147.5 244 Z " /><path fill="rgb(0,0,0)" stroke="rgb(0,0,0)" stroke-width="1" opacity="0.8117647058823529" d="M 364.5 244 L 358.5 251 L 364.5 244 Z " /><path fill="rgb(0,0,0)" stroke="rgb(0,0,0)" stroke-width="1" opacity="0.8117647058823529" d="M 196.5 251 L 202.5 258 L 196.5 251 Z " /><path fill="rgb(0,0,0)" stroke="rgb(0,0,0)" stroke-width="1" opacity="0.8117647058823529" d="M 312.5 254 L 306.5 261 L 312.5 254 Z " /><path fill="rgb(0,0,0)" stroke="rgb(0,0,0)" stroke-width="1" opacity="0.8117647058823529" d="M 157.5 255 L 163.5 262 L 157.5 255 Z " /><path fill="rgb(0,0,0)" stroke="rgb(0,0,0)" stroke-width="1" opacity="0.8117647058823529" d="M 354.5 255 L 348.5 262 L 354.5 255 Z " /><path fill="rgb(0,0,0)" stroke="rgb(0,0,0)" stroke-width="1" opacity="0.8117647058823529" d="M 206.5 262 L 212.5 269 L 206.5 262 Z " /><path fill="rgb(0,0,0)" stroke="rgb(0,0,0)" stroke-width="1" opacity="0.8117647058823529" d="M 303.5 264 L 297.5 271 L 303.5 264 Z " /><path fill="rgb(0,0,0)" stroke="rgb(0,0,0)" stroke-width="1" opacity="0.8117647058823529" d="M 167.5 266 L 173.5 273 L 167.5 266 Z " /><path fill="rgb(0,0,0)" stroke="rgb(0,0,0)" stroke-width="1" opacity="0.8117647058823529" d="M 344.5 266 L 338.5 273 L 344.5 266 Z " /><path fill="rgb(0,0,0)" stroke="rgb(0,0,0)" stroke-width="1" opacity="0.8117647058823529" d="M 215.5 272 L 221.5 279 L 215.5 272 Z " /><path fill="rgb(0,0,0)" stroke="rgb(0,0,0)" stroke-width="1" opacity="0.8117647058823529" d="M 293.5 275 L 287.5 282 L 293.5 275 Z " /><path fill="rgb(0,0,0)" stroke="rgb(0,0,0)" stroke-width="1" opacity="0.8117647058823529" d="M 177.5 277 L 184.5 285 L 177.5 277 Z " /><path fill="rgb(0,0,0)" stroke="rgb(0,0,0)" stroke-width="1" opacity="0.8117647058823529" d="M 334.5 277 L 328.5 284 L 334.5 277 Z " /><path fill="rgb(0,0,0)" stroke="rgb(0,0,0)" stroke-width="1" opacity="0.8117647058823529" d="M 225.5 283 L 228.5 287 L 225.5 283 Z " /><path fill="rgb(0,0,0)" stroke="rgb(0,0,0)" stroke-width="1" opacity="0.8117647058823529" d="M 283.5 286 L 282.5 288 L 283.5 286 Z " /><path fill="rgb(0,0,0)" stroke="rgb(0,0,0)" stroke-width="1" opacity="0.8117647058823529" d="M 187.5 288 L 194.5 296 L 187.5 288 Z " /><path fill="rgb(0,0,0)" stroke="rgb(0,0,0)" stroke-width="1" opacity="0.8117647058823529" d="M 229.5 288 L 231 290.5 L 230 290.5 L 229.5 288 Z " /><path fill="rgb(0,0,0)" stroke="rgb(0,0,0)" stroke-width="1" opacity="0.8117647058823529" d="M 324.5 288 L 318.5 295 L 324.5 288 Z " /><path fill="rgb(0,0,0)" stroke="rgb(0,0,0)" stroke-width="1" opacity="0.8117647058823529" d="M 231.5 292 L 232 294.5 L 231 294.5 L 231.5 292 Z " /><path fill="rgb(0,0,0)" stroke="rgb(0,0,0)" stroke-width="1" opacity="0.8117647058823529" d="M 280.5 292 L 281 294.5 L 280 294.5 L 280.5 292 Z " /><path fill="rgb(0,0,0)" stroke="rgb(0,0,0)" stroke-width="1" opacity="0.8117647058823529" d="M 197.5 299 L 199.5 302 L 197.5 299 Z " /><path fill="rgb(0,0,0)" stroke="rgb(0,0,0)" stroke-width="1" opacity="0.8117647058823529" d="M 314.5 299 L 312.5 302 L 314.5 299 Z " /><path fill="rgb(0,0,0)" stroke="rgb(0,0,0)" stroke-width="1" opacity="0.8117647058823529" d="M 279.5 384 L 277.5 387 L 279.5 384 Z " /><path fill="rgb(0,0,0)" stroke="rgb(0,0,0)" stroke-width="1" opacity="0.8117647058823529" d="M 274.5 388 L 272.5 391 L 274.5 388 Z " /><path fill="rgb(0,0,0)" stroke="rgb(0,0,0)" stroke-width="1" opacity="0.8117647058823529" d="M 269.5 392 L 267.5 395 L 269.5 392 Z " /><path fill="rgb(0,0,0)" stroke="rgb(0,0,0)" stroke-width="1" opacity="0.8117647058823529" d="M 311.5 393 L 312 395.5 L 311 395.5 L 311.5 393 Z " /><path fill="rgb(0,0,0)" stroke="rgb(0,0,0)" stroke-width="1" opacity="0.8117647058823529" d="M 264.5 396 L 262.5 399 L 264.5 396 Z " /><path fill="rgb(0,0,0)" stroke="rgb(0,0,0)" stroke-width="1" opacity="0.8117647058823529" d="M 259.5 400 L 257.5 403 L 259.5 400 Z " /><path fill="rgb(0,0,0)" stroke="rgb(0,0,0)" stroke-width="1" opacity="0.8117647058823529" d="M 309.5 400 L 303.5 407 L 309.5 400 Z " /><path fill="rgb(0,0,0)" stroke="rgb(0,0,0)" stroke-width="1" opacity="0.8117647058823529" d="M 254.5 404 L 251.5 408 L 254.5 404 Z " /><path fill="rgb(0,0,0)" stroke="rgb(0,0,0)" stroke-width="1" opacity="0.8117647058823529" d="M 300.5 408 L 298.5 411 L 300.5 408 Z " /><path fill="rgb(0,0,0)" stroke="rgb(0,0,0)" stroke-width="1" opacity="0.8117647058823529" d="M 248.5 409 L 246.5 412 L 248.5 409 Z " /><path fill="rgb(0,0,0)" stroke="rgb(0,0,0)" stroke-width="1" opacity="0.8117647058823529" d="M 295.5 412 L 293.5 415 L 295.5 412 Z " /><path fill="rgb(0,0,0)" stroke="rgb(0,0,0)" stroke-width="1" opacity="0.8117647058823529" d="M 243.5 413 L 241.5 416 L 243.5 413 Z " /><path fill="rgb(0,0,0)" stroke="rgb(0,0,0)" stroke-width="1" opacity="0.8117647058823529" d="M 290.5 416 L 288.5 419 L 290.5 416 Z " /><path fill="rgb(0,0,0)" stroke="rgb(0,0,0)" stroke-width="1" opacity="0.8117647058823529" d="M 238.5 417 L 236.5 420 L 238.5 417 Z " /><path fill="rgb(0,0,0)" stroke="rgb(0,0,0)" stroke-width="1" opacity="0.8117647058823529" d="M 285.5 420 L 283.5 423 L 285.5 420 Z " /><path fill="rgb(0,0,0)" stroke="rgb(0,0,0)" stroke-width="1" opacity="0.8117647058823529" d="M 233.5 421 L 232.5 423 L 233.5 421 Z " /><path fill="rgb(0,0,0)" stroke="rgb(0,0,0)" stroke-width="1" opacity="0.8117647058823529" d="M 280.5 424 L 278.5 427 L 280.5 424 Z " /><path fill="rgb(0,0,0)" stroke="rgb(0,0,0)" stroke-width="1" opacity="0.8117647058823529" d="M 275.5 428 L 273.5 431 L 275.5 428 Z " /><path fill="rgb(0,0,0)" stroke="rgb(0,0,0)" stroke-width="1" opacity="0.8117647058823529" d="M 270.5 432 L 268.5 435 L 270.5 432 Z " /><path fill="rgb(0,0,0)" stroke="rgb(0,0,0)" stroke-width="1" opacity="0.8117647058823529" d="M 265.5 436 L 263.5 439 L 265.5 436 Z " /><path fill="rgb(0,0,0)" stroke="rgb(0,0,0)" stroke-width="1" opacity="0.8117647058823529" d="M 260.5 440 L 258.5 443 L 260.5 440 Z " /><path fill="rgb(0,0,0)" stroke="rgb(0,0,0)" stroke-width="1" opacity="0.8117647058823529" d="M 255.5 444 L 253.5 447 L 255.5 444 Z " /><path fill="rgb(0,0,0)" stroke="rgb(0,0,0)" stroke-width="1" opacity="0.8117647058823529" d="M 250.5 448 L 248.5 451 L 250.5 448 Z " /><path fill="rgb(0,0,0)" stroke="rgb(0,0,0)" stroke-width="1" opacity="0.8117647058823529" d="M 245.5 452 L 243.5 455 L 245.5 452 Z " /><path fill="rgb(0,0,0)" stroke="rgb(0,0,0)" stroke-width="1" opacity="0.8117647058823529" d="M 240.5 456 L 238.5 459 L 240.5 456 Z " /><path fill="rgb(0,0,0)" stroke="rgb(0,0,0)" stroke-width="1" opacity="0.8117647058823529" d="M 235.5 460 L 233.5 463 L 235.5 460 Z " /><path fill="rgb(0,0,0)" stroke="rgb(0,0,0)" stroke-width="1" opacity="0.8117647058823529" d="M 202.5 464 L 207.5 470 L 202.5 464 Z " /><path fill="rgb(0,0,0)" stroke="rgb(0,0,0)" stroke-width="1" opacity="0.8117647058823529" d="M 230.5 464 L 228.5 467 L 230.5 464 Z " /><path fill="rgb(0,0,0)" stroke="rgb(0,0,0)" stroke-width="1" opacity="0.8117647058823529" d="M 225.5 468 L 224.5 470 L 225.5 468 Z " /><path fill="rgb(0,0,0)" stroke="rgb(0,0,0)" stroke-width="1" opacity="0.8117647058823529" d="M 217.5 471 L 220 471.5 L 217.5 472 L 217.5 471 Z " /><path fill="rgb(0,0,0)" stroke="rgb(0,0,0)" stroke-width="1" opacity="1" d="M 82.5 64 L 429.5 64 L 445.5 68 L 460 78.5 Q 471.1 89.4 472 110.5 L 469 124.5 Q 465 134.5 458 141.5 L 312 301.5 L 312 392.5 L 310 399.5 L 301.5 408 L 226.5 468 L 221.5 471 L 214.5 472 Q 205.6 470.4 202 463.5 L 200 457.5 L 200 301.5 L 49 135.5 Q 40.6 125.4 40 107.5 Q 42.8 105.8 41 99.5 L 44 90.5 L 54.5 76 L 66.5 68 L 82.5 64 Z M 81 96 L 79 97 L 72 105 L 72 114 L 78 122 L 229 288 L 232 296 L 233 423 L 278 387 L 280 385 L 280 296 L 282 289 L 431 125 L 440 113 Q 441 105 438 102 L 432 96 L 81 96 Z " /></svg>